<svg width="14" height="19" viewBox="0 0 14 19" fill="none" xmlns="http://www.w3.org/2000/svg">
<path fill-rule="evenodd" clip-rule="evenodd" d="M5.52674 9.32139L5.73323 9.5L5.52674 9.67861C3.34886 11.5624 1.53811 13.8356 0.186455 16.3827C-0.343957 17.3822 0.314557 18.6008 1.43837 18.6995L2.73217 18.8131C5.57197 19.0623 8.42803 19.0623 11.2678 18.8131L12.5616 18.6995C13.6854 18.6009 14.344 17.3822 13.8135 16.3827C12.4619 13.8356 10.6511 11.5624 8.47326 9.67861L8.26677 9.5L8.47326 9.32139C10.6511 7.43761 12.4619 5.16444 13.8135 2.61734C14.344 1.61782 13.6854 0.399148 12.5616 0.300508L11.2678 0.186945C8.42803 -0.0623152 5.57197 -0.0623149 2.73217 0.186946L1.43837 0.300509C0.314557 0.399151 -0.343957 1.61782 0.186455 2.61735C1.53811 5.16444 3.34886 7.43761 5.52674 9.32139ZM6.99995 7.0097C6.78065 7.0097 6.57033 6.92224 6.41527 6.76657L4.2103 4.55297C3.97382 4.31557 3.90308 3.95852 4.03106 3.64834C4.15905 3.33815 4.46055 3.1359 4.79498 3.1359H9.20491C9.53934 3.1359 9.84084 3.33815 9.96883 3.64834C10.0968 3.95852 10.0261 4.31557 9.78959 4.55297L7.58462 6.76657C7.42956 6.92224 7.21924 7.0097 6.99995 7.0097ZM6.99995 11.9903C6.78065 11.9903 6.57033 12.0778 6.41527 12.2334L4.2103 14.447C3.97382 14.6844 3.90308 15.0415 4.03106 15.3517C4.15905 15.6618 4.46055 15.8641 4.79498 15.8641H9.20491C9.53934 15.8641 9.84084 15.6618 9.96883 15.3517C10.0968 15.0415 10.0261 14.6844 9.78959 14.447L7.58462 12.2334C7.42956 12.0778 7.21924 11.9903 6.99995 11.9903Z" fill="#7E9DFE"/>
</svg>
