<svg width="23" height="28" viewBox="0 0 23 28" fill="none" xmlns="http://www.w3.org/2000/svg">
<g filter="url(#filter0_d_399_5139)">
<path d="M4 7.26594C4 3.23718 7.37403 0 11.5 0C15.626 0 19 3.23718 19 7.26594C19 9.61992 18.0269 11.7437 16.2051 13.0831C16.0794 13.1756 16.0033 13.2902 15.9767 13.4028C15.923 13.6308 15.8641 13.8918 15.8035 14.1718C15.7735 14.3103 15.6512 14.4095 15.5095 14.4095H7.49054C7.3488 14.4095 7.22649 14.3103 7.1965 14.1718C7.13588 13.8918 7.07696 13.6308 7.02325 13.4028C6.99675 13.2902 6.92064 13.1756 6.7949 13.0831C4.97313 11.7437 4 9.61992 4 7.26594Z" fill="#FFF172"/>
<path d="M7.90053 15.9095C7.71367 15.9095 7.57242 16.0786 7.60352 16.2629C7.69745 16.8194 7.76604 17.3165 7.78682 17.6599C7.84981 18.7011 8.61672 19.5588 9.64223 19.7803L9.83821 19.8227C10.9326 20.0591 12.0674 20.0591 13.1618 19.8227L13.3578 19.7803C14.3833 19.5588 15.1502 18.7011 15.2132 17.6599C15.234 17.3165 15.3026 16.8194 15.3965 16.2629C15.4276 16.0786 15.2863 15.9095 15.0995 15.9095H7.90053Z" fill="#FFF172"/>
</g>
<defs>
<filter id="filter0_d_399_5139" x="0" y="0" width="23" height="28" filterUnits="userSpaceOnUse" color-interpolation-filters="sRGB">
<feFlood flood-opacity="0" result="BackgroundImageFix"/>
<feColorMatrix in="SourceAlpha" type="matrix" values="0 0 0 0 0 0 0 0 0 0 0 0 0 0 0 0 0 0 127 0" result="hardAlpha"/>
<feOffset dy="4"/>
<feGaussianBlur stdDeviation="2"/>
<feComposite in2="hardAlpha" operator="out"/>
<feColorMatrix type="matrix" values="0 0 0 0 1 0 0 0 0 0.945098 0 0 0 0 0.447059 0 0 0 0.3 0"/>
<feBlend mode="normal" in2="BackgroundImageFix" result="effect1_dropShadow_399_5139"/>
<feBlend mode="normal" in="SourceGraphic" in2="effect1_dropShadow_399_5139" result="shape"/>
</filter>
</defs>
</svg>
