<svg width="21" height="20" viewBox="0 0 21 20" fill="none" xmlns="http://www.w3.org/2000/svg">
<path d="M5.5197 0.868601C5.5197 0.388886 5.12621 0 4.64081 0C4.15542 0 3.76193 0.388886 3.76193 0.868601V2.97227C2.01228 3.21673 0.630033 4.58442 0.396043 6.32902L0.294618 7.08523C0.277423 7.21344 0.26098 7.34172 0.24529 7.47006C0.203671 7.81052 0.475076 8.10695 0.822067 8.10695H20.1779C20.5249 8.10695 20.7963 7.81052 20.7547 7.47006C20.739 7.34172 20.7226 7.21343 20.7054 7.08522L20.604 6.32902C20.37 4.58444 18.9878 3.21677 17.2381 2.97228V0.868601C17.2381 0.388886 16.8446 0 16.3593 0C15.8739 0 15.4804 0.388886 15.4804 0.868601V2.79995C12.1667 2.50829 8.83336 2.50829 5.5197 2.79994V0.868601Z" fill="#7E9DFE"/>
<path d="M20.9817 10.3949C20.9714 10.0863 20.7134 9.84415 20.401 9.84415H0.598968C0.286587 9.84415 0.0285874 10.0863 0.0183283 10.3949C-0.0512776 12.4884 0.0773931 14.5862 0.404026 16.6608C0.651296 18.2312 1.94227 19.4375 3.5427 19.5935L4.94072 19.7297C8.63794 20.0901 12.3621 20.0901 16.0593 19.7297L17.4573 19.5935C19.0577 19.4375 20.3487 18.2312 20.596 16.6608C20.9226 14.5862 21.0513 12.4884 20.9817 10.3949Z" fill="#7E9DFE"/>
</svg>
