<svg width="22" height="19" viewBox="0 0 22 19" fill="none" xmlns="http://www.w3.org/2000/svg">
<path d="M8.30215 10.2117C8.30215 8.7188 9.51003 7.50859 11 7.50859C12.49 7.50859 13.6979 8.7188 13.6979 10.2117C13.6979 11.7046 12.49 12.9148 11 12.9148C9.51003 12.9148 8.30215 11.7046 8.30215 10.2117Z" fill="#7E9DFE"/>
<path fill-rule="evenodd" clip-rule="evenodd" d="M5.57268 3.77526C5.57268 1.69024 7.25967 0 9.34066 0H12.6593C14.7403 0 16.4273 1.69024 16.4273 3.77526C16.4273 3.79308 16.441 3.80793 16.4587 3.80937L19.1321 4.02691C20.3297 4.12435 21.3145 5.01161 21.538 6.19439C22.1084 9.21261 22.151 12.3072 21.6637 15.34L21.5471 16.0659C21.3273 17.4341 20.2034 18.4751 18.8247 18.5873L16.4957 18.7768C12.8379 19.0744 9.16207 19.0744 5.50425 18.7768L3.17529 18.5873C1.79663 18.4751 0.672675 17.4341 0.452868 16.0659L0.336259 15.34C-0.150955 12.3072 -0.108426 9.21261 0.461951 6.19439C0.685469 5.01161 1.67034 4.12435 2.86787 4.02691L5.54129 3.80937C5.55902 3.80793 5.57268 3.79308 5.57268 3.77526ZM11 5.70653C8.5167 5.70653 6.50356 7.72355 6.50356 10.2117C6.50356 12.6998 8.5167 14.7168 11 14.7168C13.4834 14.7168 15.4965 12.6998 15.4965 10.2117C15.4965 7.72355 13.4834 5.70653 11 5.70653Z" fill="#7E9DFE"/>
</svg>
