<svg width="17" height="21" viewBox="0 0 17 21" fill="none" xmlns="http://www.w3.org/2000/svg">
<path fill-rule="evenodd" clip-rule="evenodd" d="M13.5291 0.354481C10.1935 -0.11816 6.8065 -0.11816 3.4709 0.354481C1.8171 0.588818 0.542928 1.91234 0.391565 3.55308L0.248284 5.10621C-0.0827615 8.69466 -0.0827612 12.3053 0.248284 15.8938L0.391566 17.4469C0.542929 19.0877 1.8171 20.4112 3.4709 20.6455C6.8065 21.1182 10.1935 21.1182 13.5291 20.6455C15.1829 20.4112 16.4571 19.0877 16.6084 17.4469L16.7517 15.8938C17.0828 12.3053 17.0828 8.69466 16.7517 5.10621L16.6084 3.55308C16.4571 1.91234 15.1829 0.588818 13.5291 0.354481ZM6.24301 7.16168C6.24301 5.93255 7.25349 4.93614 8.49999 4.93614C9.74649 4.93614 10.757 5.93255 10.757 7.16168C10.757 8.39082 9.74649 9.38723 8.49999 9.38723C7.25349 9.38723 6.24301 8.39082 6.24301 7.16168ZM3.98602 14.3947C3.98602 12.551 5.50175 11.0564 7.3715 11.0564H9.62848C11.4982 11.0564 13.014 12.551 13.014 14.3947C13.014 15.0093 12.5087 15.5075 11.8855 15.5075H5.11451C4.49126 15.5075 3.98602 15.0093 3.98602 14.3947Z" fill="#7E9DFE"/>
</svg>
