<svg width="57" height="60" viewBox="0 0 57 60" fill="none" xmlns="http://www.w3.org/2000/svg">
<g filter="url(#filter0_d_376_16408)">
<path fill-rule="evenodd" clip-rule="evenodd" d="M18.2254 12.6332V15.9716C17.4433 16.033 16.6617 16.1015 15.8804 16.1769C12.7637 16.4779 10.333 19.4759 10.0315 22.7019C9.99695 23.0718 10.2905 23.3738 10.6489 23.3738H46.3511C46.7095 23.3738 47.003 23.0718 46.9685 22.7019C46.667 19.4759 44.2363 16.4779 41.1196 16.1769C40.3384 16.1015 39.5567 16.0331 38.7746 15.9716V12.6332C38.7746 10.6903 37.4038 9.03981 35.5508 8.75161L32.912 8.34119C29.987 7.88627 27.013 7.88627 24.088 8.34119L21.4493 8.75161C19.5962 9.03981 18.2254 10.6903 18.2254 12.6332ZM32.4307 11.6682C29.8248 11.263 27.1752 11.263 24.5693 11.6682L21.9306 12.0787C21.6659 12.1198 21.47 12.3556 21.47 12.6332V15.7573C26.1536 15.5061 30.8465 15.5061 35.53 15.7573V12.6332C35.53 12.3556 35.3342 12.1198 35.0695 12.0787L32.4307 11.6682Z" fill="#E72C37"/>
<path fill-rule="evenodd" clip-rule="evenodd" d="M47 27.4109C47 27.0393 46.7095 26.738 46.3511 26.738H10.6489C10.2905 26.738 10 27.0393 10 27.4109V40.7004C10 44.1706 12.5481 47.0702 15.8804 47.392C24.2753 48.2027 32.7247 48.2027 41.1196 47.392C44.4519 47.0702 47 44.1706 47 40.7004V27.4109ZM23.0923 34.588C22.1964 34.588 21.47 35.3411 21.47 36.2701C21.47 37.1992 22.1964 37.9523 23.0923 37.9523H26.8777V41.8773C26.8777 42.8063 27.604 43.5594 28.5 43.5594C29.396 43.5594 30.1223 42.8063 30.1223 41.8773V37.9523H33.9077C34.8037 37.9523 35.53 37.1992 35.53 36.2701C35.53 35.3411 34.8037 34.588 33.9077 34.588H30.1223V30.663C30.1223 29.734 29.396 28.9809 28.5 28.9809C27.604 28.9809 26.8777 29.734 26.8777 30.663V34.588H23.0923Z" fill="#E72C37"/>
</g>
<defs>
<filter id="filter0_d_376_16408" x="0" y="0" width="57" height="60" filterUnits="userSpaceOnUse" color-interpolation-filters="sRGB">
<feFlood flood-opacity="0" result="BackgroundImageFix"/>
<feColorMatrix in="SourceAlpha" type="matrix" values="0 0 0 0 0 0 0 0 0 0 0 0 0 0 0 0 0 0 127 0" result="hardAlpha"/>
<feOffset dy="2"/>
<feGaussianBlur stdDeviation="5"/>
<feComposite in2="hardAlpha" operator="out"/>
<feColorMatrix type="matrix" values="0 0 0 0 0.905882 0 0 0 0 0.172549 0 0 0 0 0.215686 0 0 0 0.25 0"/>
<feBlend mode="normal" in2="BackgroundImageFix" result="effect1_dropShadow_376_16408"/>
<feBlend mode="normal" in="SourceGraphic" in2="effect1_dropShadow_376_16408" result="shape"/>
</filter>
</defs>
</svg>
