<svg width="24" height="14" viewBox="0 0 24 14" fill="none" xmlns="http://www.w3.org/2000/svg">
<path d="M4.57924 13.3469C3.74051 13.3469 3.30249 12.9877 3.08018 12.6844C2.61389 12.0501 2.78295 11.2878 2.87379 10.9878C2.92072 10.8346 2.97397 10.6379 3.03325 10.4067C3.40568 8.97888 4.10059 6.31676 6.11288 5.06406C7.46785 4.22043 10.1438 3.92041 12.1969 3.92041C13.4424 3.92041 16.5127 4.04234 18.1245 5.17941C20.4906 6.84475 21.0881 11.2347 21.1133 11.4221C21.1166 11.4533 21.1196 11.4846 21.1196 11.5188C21.1196 12.6655 20.4343 13.3499 19.2858 13.3499H4.57924V13.3469Z" fill="white"/>
<path d="M4.57632 14.0002C3.40743 14.0002 2.80198 13.418 2.54482 13.0708C2.09088 12.4546 1.98027 11.6236 2.24128 10.7912C2.27751 10.6802 2.32114 10.5147 2.37219 10.321L2.3925 10.2438C2.79073 8.72474 3.5323 5.8974 5.76195 4.50907C7.23878 3.59174 10.0544 3.26514 12.1973 3.26514C13.8226 3.26514 16.8029 3.44378 18.5034 4.64059C21.052 6.43552 21.6997 10.8372 21.7653 11.3332C21.774 11.3932 21.7768 11.4545 21.7768 11.5129C21.7768 13.0237 20.7992 13.9999 19.2861 13.9999H4.57632V14.0002ZM12.197 4.58003C9.72833 4.58003 7.47535 4.99075 6.45769 5.62669C4.66414 6.74404 4.01342 9.23957 3.66376 10.5805C3.60091 10.8224 3.54685 11.0296 3.4969 11.189C3.36543 11.6148 3.40633 12.031 3.60695 12.3017C3.79962 12.5623 4.12594 12.6944 4.57632 12.6944H19.2856C20.0664 12.6944 20.4624 12.299 20.4624 11.5195C20.4578 11.4866 19.9094 7.24106 17.7462 5.71656C16.7214 4.99459 14.6989 4.58003 12.197 4.58003Z" fill="#4C2F1B"/>
<path d="M4.57627 13.9187C3.44333 13.9187 2.8582 13.357 2.61037 13.0225C2.17234 12.4277 2.06586 11.6232 2.3189 10.8155C2.35513 10.7045 2.39932 10.5374 2.45091 10.3417L2.47122 10.2645C2.86863 8.74874 3.60306 5.94907 5.80499 4.57801C7.267 3.66999 10.0656 3.34668 12.197 3.34668C13.8124 3.34668 16.774 3.52341 18.4561 4.70733C20.9764 6.48254 21.6189 10.8516 21.684 11.3443C21.6925 11.4016 21.6947 11.4591 21.6947 11.5136C21.6947 12.9748 20.7489 13.919 19.2855 13.919H4.57627V13.9187ZM12.197 4.49855C9.71374 4.49855 7.44429 4.9142 6.41455 5.55754C4.59356 6.69215 3.93734 9.20823 3.58495 10.5601C3.52237 10.8001 3.46886 11.0062 3.41918 11.1645C3.28003 11.6155 3.32559 12.0583 3.54131 12.3501C3.75044 12.6326 4.09845 12.7759 4.57627 12.7759H19.2855C20.1089 12.7759 20.5439 12.3414 20.5439 11.5194C20.5195 11.3224 19.9544 7.17328 17.7931 5.64987C16.7551 4.91831 14.7154 4.49855 12.197 4.49855Z" fill="#4C2F1B"/>
<path d="M9.79028 12.9317V6.72021L14.0934 6.76707V12.9314H9.79028V12.9317Z" fill="#4C2F1B"/>
<path d="M10.2345 7.16693L13.652 7.20118V12.4876H10.2345V7.16693ZM9.34888 6.27344V13.3751H14.5379V6.32961L13.6616 6.32029L10.2441 6.28275L9.34888 6.27344Z" fill="#4C2F1B"/>
<path d="M0.991021 7.32752C2.59602 2.40193 6.88488 1.17334 11.9551 1.17334C16.747 1.17334 20.5397 2.4022 22.4227 7.3308C24.1866 11.9468 16.2407 7.07489 11.9551 7.07489C7.66926 7.07489 -0.537952 12.0172 0.991021 7.32752Z" fill="#FF6C4A"/>
<path d="M10.5915 1.37476C10.5915 1.37476 10.1189 4.25224 10.9639 6.91738C10.9639 6.91738 11.5334 6.68613 12.7665 6.90176C12.7665 6.90176 11.768 3.79303 12.4849 1.32461C12.4816 1.3216 11.5054 1.24351 10.5915 1.37476Z" fill="#FFAF9F"/>
<path d="M17.265 2.05322C16.4847 5.54555 17.265 8.15424 17.265 8.15424L18.9993 8.67456C18.9993 8.67456 18.6353 5.35896 18.8288 2.89767C18.8288 2.89411 17.7143 2.19707 17.265 2.05322Z" fill="#FFAF9F"/>
<path d="M17.586 8.57586C17.4625 8.05171 16.9336 5.47672 17.5698 2.16797C17.9821 2.36716 18.6372 2.79596 18.8694 2.95241C18.7173 5.22218 18.9459 8.13336 19.0266 9.04494L17.586 8.57586Z" fill="#FFAF9F"/>
<path d="M11.053 7.1049C10.3633 4.58854 10.6292 1.91463 10.705 1.29541C11.0274 1.25239 11.387 1.23047 11.7756 1.23047C11.9855 1.23047 12.1653 1.23732 12.2913 1.24389C11.7525 3.55339 12.3393 6.22373 12.5611 7.08681C12.2896 7.04654 12.0308 7.02626 11.7896 7.02626C11.4465 7.02654 11.202 7.06818 11.053 7.1049Z" fill="#FFAF9F"/>
<path d="M2.60785 10.3759C1.38105 10.3759 0.744593 9.85364 0.426503 9.4158C-0.318635 8.38147 0.109785 7.09206 0.250304 6.66819C2.23651 0.691287 7.87486 0 11.9433 0C15.9605 0 20.8644 0.750195 23.1435 6.59969C23.312 7.03123 23.8238 8.34229 23.1023 9.39251C22.8064 9.82652 22.2057 10.3441 21.0258 10.3441C19.8901 10.3441 18.371 9.86926 16.7624 9.36703C15.102 8.84973 13.2198 8.26338 11.9436 8.26338C10.6806 8.26338 8.79318 8.84397 7.12807 9.35634C5.42949 9.88104 3.82861 10.3759 2.60785 10.3759ZM11.9433 1.31188C6.04344 1.31188 2.82192 3.09065 1.49741 7.07918C1.25727 7.80499 1.25617 8.31791 1.49412 8.64642C1.69584 8.92535 2.06004 9.0607 2.60757 9.0607C3.61783 9.0607 5.13363 8.59491 6.73835 8.102C8.58404 7.53511 10.492 6.94876 11.9431 6.94876C13.418 6.94876 15.4023 7.56771 17.1527 8.11351C18.6688 8.58642 20.1001 9.03276 21.0252 9.03276C21.5181 9.03276 21.8426 8.90891 22.0177 8.65382C22.2378 8.33298 22.2051 7.81732 21.9183 7.07836C19.9403 1.99714 15.7659 1.31188 11.9433 1.31188Z" fill="#4C2F1B"/>
<path d="M2.60795 10.2944C1.41545 10.2944 0.79958 9.79052 0.492743 9.36802C-0.227694 8.36794 0.190297 7.10812 0.327797 6.69411C2.29754 0.767075 7.90048 0.081543 11.9434 0.081543C15.9348 0.081543 20.8063 0.825984 23.0675 6.62945C23.2319 7.05058 23.7325 8.33122 23.0351 9.34665C22.75 9.76503 22.1703 10.2632 21.0259 10.2632C19.9028 10.2632 18.3892 9.79024 16.787 9.28965C15.1205 8.77044 13.2317 8.18245 11.9437 8.18245C10.6675 8.18245 8.77269 8.76578 7.101 9.28007C5.41147 9.80175 3.81608 10.2944 2.60795 10.2944ZM11.9434 1.23067C6.00292 1.23067 2.75725 3.0267 1.42012 7.05359C1.17119 7.80625 1.17393 8.34273 1.42835 8.69427C1.64654 8.99593 2.03242 9.14225 2.60795 9.14225C3.63028 9.14225 5.15184 8.67481 6.76288 8.17998C8.60253 7.61473 10.505 7.0303 11.9437 7.0303C13.4057 7.0303 15.3837 7.64706 17.1289 8.19121C18.6508 8.66577 20.0881 9.11403 21.0259 9.11403C21.5479 9.11403 21.8942 8.9784 22.0855 8.69975C22.3218 8.35506 22.2922 7.81502 21.995 7.04893C19.9986 1.92196 15.7937 1.23067 11.9434 1.23067Z" fill="#4C2F1B"/>
<path d="M4.54825 2.98223C4.54825 2.98223 3.72928 6.12357 5.92408 8.36977L7.32571 7.95933C7.32571 7.95933 5.59721 5.73915 5.94329 2.18408L4.54825 2.98223Z" fill="#FFAF9F"/>
<path d="M6.03088 8.45711C4.12646 6.2564 4.61251 3.2789 4.71324 2.77065L5.79814 2.09717C5.60685 5.2733 6.72881 7.42936 7.14049 8.10476L6.03088 8.45711Z" fill="#FFAF9F"/>
</svg>
