<svg width="21" height="24" viewBox="0 0 21 24" fill="none" xmlns="http://www.w3.org/2000/svg">
<path d="M7.32259 22.9064C3.38218 22.9064 0.187988 19.712 0.187988 15.7718V10.8901C0.188469 7.82949 2.14065 5.11018 5.04044 4.13085L4.1308 2.8165H5.25721V1.31445L6.57156 1.69008L7.32259 1.31445L8.07361 1.69008L9.38796 1.31445V2.8165H10.7023L9.67371 4.15368C12.5379 5.15392 14.4569 7.85592 14.4572 10.8901V15.7718C14.4569 19.712 11.263 22.9064 7.32259 22.9064Z" fill="#FFBA0E"/>
<path d="M7.3225 22.9061C5.1634 22.9078 3.1199 21.9294 1.76733 20.2464C3.85506 21.5045 6.45852 21.541 8.58086 20.3423C10.7034 19.1433 12.0161 16.8948 12.0163 14.4572V9.76308C12.0171 7.31462 10.6924 5.05699 8.55466 3.86328C11.9671 4.46146 14.4569 7.42493 14.4571 10.8897V15.7715C14.4569 19.7117 11.2629 22.9061 7.3225 22.9061Z" fill="#F89F04"/>
<path d="M7.51025 16.7105C7.51025 20.1325 10.2844 22.9064 13.7061 22.9064C17.1282 22.9064 19.9023 20.1325 19.9023 16.7105C19.9023 13.2885 17.1282 10.5146 13.7061 10.5146C10.2844 10.5146 7.51025 13.2885 7.51025 16.7105Z" fill="#FFE760"/>
<path d="M13.7062 22.9064C12.2664 22.9086 10.8711 22.4072 9.76196 21.4892C12.5909 22.3899 15.6615 21.1573 17.0823 18.5505C18.5032 15.9434 17.8752 12.6951 15.5849 10.8057C18.4969 11.7314 20.2991 14.6418 19.8302 17.661C19.3616 20.6802 16.7617 22.9071 13.7062 22.9064Z" fill="#FFBA0E"/>
<path d="M11.0776 16.7102C11.0776 18.1621 12.2543 19.3389 13.7063 19.3389C15.1582 19.3389 16.3348 18.1621 16.3348 16.7102C16.3348 15.2584 15.1582 14.0815 13.7063 14.0815C12.2543 14.0815 11.0776 15.2584 11.0776 16.7102Z" fill="#FDBD0F"/>
<path d="M11.4731 12.5374C11.0977 12.1517 10.2882 13.3237 9.76842 14.0582C9.4274 14.583 9.18491 15.1656 9.05225 15.777C9.05225 15.777 9.7093 15.1012 10.4957 14.3701C11.2818 13.639 11.4238 13.6532 11.6153 13.2687C11.7559 12.9861 11.8475 12.9233 11.4731 12.5374Z" fill="white"/>
<path d="M13.7061 23.094C12.6561 23.0955 11.6222 22.8366 10.697 22.3408C9.70778 22.8366 8.61646 23.0947 7.51023 23.094H7.1346C3.19443 23.094 0 19.8998 0 15.9594V10.7023C0 7.79213 1.76713 5.17401 4.466 4.08557L3.00409 2.441H5.03798L4.88153 0.563327L6.64049 1.26677L7.32253 0L8.00434 1.26677L9.7633 0.563327L9.60685 2.441H11.6407L10.1788 4.08557C12.771 5.13387 14.5114 7.60059 14.6302 10.3942C17.9402 10.8789 20.3144 13.8371 20.0717 17.1736C19.8292 20.5103 17.0515 23.0933 13.7061 23.094ZM7.32253 22.343C8.20141 22.3428 9.07116 22.1649 9.87938 21.82C8.75993 20.9808 7.94691 19.7974 7.56478 18.4516L7.32253 18.2125C7.32253 18.2125 5.52537 19.9827 5.25716 20.2776C4.98896 20.5727 4.72051 20.6533 4.50614 21.2166C4.45255 21.3562 4.40929 21.4994 4.37684 21.6456C5.29057 22.1053 6.29946 22.3442 7.32253 22.343ZM7.32253 5.4451C7.32253 5.4451 5.52537 7.21535 5.25716 7.51047C4.98896 7.80535 4.72051 7.88586 4.50614 8.44919C4.48523 8.5035 4.46841 8.55469 4.45206 8.60564C4.94666 9.10336 5.47634 9.63016 5.82025 9.95124C5.89042 10.0166 5.95579 10.0839 6.01852 10.1514C6.69768 9.46746 7.32253 8.82458 7.32253 8.82458C7.32253 8.82458 7.94763 9.46794 8.62703 10.1524C8.69 10.0844 8.75417 10.0168 8.82458 9.95124C9.16849 9.63016 9.69817 9.10336 10.1928 8.60564C10.1762 8.55277 10.1582 8.50086 10.1387 8.44919C9.92432 7.88586 9.65587 7.80535 9.38767 7.51047C9.11946 7.21535 7.32253 5.4451 7.32253 5.4451ZM8.82458 5.4451C9.02573 5.25716 9.29178 4.99761 9.57656 4.71546C8.85438 4.45206 8.09134 4.31772 7.32253 4.31844C6.55349 4.31772 5.79045 4.45206 5.06826 4.71546C5.31556 4.96204 5.56622 5.20549 5.82025 5.4451C5.89066 5.51071 5.95435 5.57848 6.01732 5.64625C6.69696 4.96204 7.32253 4.31844 7.32253 4.31844C7.32253 4.31844 7.94787 4.96204 8.62751 5.64649C8.69048 5.57848 8.75417 5.51071 8.82458 5.4451ZM9.38767 10.5146C9.32374 10.5833 9.25549 10.6482 9.18411 10.709C9.43597 10.9606 9.69192 11.2086 9.95099 11.4533L10.0072 11.5095C10.9875 10.8097 12.1469 10.4031 13.3495 10.3374C12.8227 9.79839 11.453 8.44919 11.453 8.44919C11.453 8.44919 9.65587 10.2194 9.38767 10.5146ZM7.32253 9.95124C7.32253 9.95124 5.52537 11.7215 5.25716 12.0164C4.98896 12.3115 4.72051 12.392 4.50614 12.9553C4.4499 13.1019 4.4052 13.2526 4.37204 13.4059C4.88874 13.9275 5.45759 14.4949 5.82025 14.8328C5.89042 14.8984 5.95507 14.9659 6.01804 15.0334C6.69744 14.3497 7.32253 13.7064 7.32253 13.7064C7.32253 13.7064 7.52585 13.9157 7.82602 14.2216C8.18219 13.3829 8.71355 12.6299 9.38454 12.013C9.10793 11.7102 7.32253 9.95124 7.32253 9.95124ZM7.54219 15.0495L7.32253 14.8328C7.32253 14.8328 5.52537 16.603 5.25716 16.8981C4.98896 17.1933 4.72051 17.2738 4.50614 17.8369C4.4499 17.9835 4.4052 18.1341 4.37204 18.2875C4.66499 18.5838 4.95988 18.878 5.25716 19.17C6.1382 18.3048 7.32253 17.0858 7.32253 17.0858L7.33527 17.0993C7.3271 16.9698 7.32253 16.84 7.32253 16.7104C7.32253 16.1495 7.39632 15.5912 7.54219 15.0495ZM3.6424 21.2166C3.89042 20.6516 4.24803 20.1411 4.69383 19.7145L4.69984 19.7088C4.07908 19.0866 3.19179 18.2125 3.19179 18.2125C3.19179 18.2125 2.4946 18.8993 1.90387 19.4891C2.37059 20.1683 2.96011 20.7542 3.6424 21.2166ZM1.49436 18.8066C1.61332 18.6881 1.73396 18.5675 1.85364 18.4471C1.82096 18.2384 1.76593 18.0339 1.68974 17.8369C1.47513 17.2738 1.20692 17.1933 0.938719 16.8981C0.914686 16.8717 0.874792 16.8299 0.828408 16.7821C0.937757 17.4889 1.16294 18.1728 1.49436 18.8066ZM1.50205 16.3348C1.93007 16.7443 2.27638 17.2312 2.52272 17.7698C2.91012 17.3747 3.19179 17.0858 3.19179 17.0858C3.19179 17.0858 3.41361 17.3139 3.73493 17.6417C3.97526 17.1531 4.2997 16.7107 4.69383 16.3348C4.95291 16.0904 5.20862 15.8424 5.46048 15.5908C5.3891 15.53 5.32109 15.4651 5.25716 15.3961C4.98896 15.101 3.19179 13.3307 3.19179 13.3307C3.19179 13.3307 1.39462 15.101 1.12641 15.3961C1.03076 15.4956 0.929586 15.5896 0.823602 15.6778C1.04663 15.8998 1.27301 16.119 1.50205 16.3348ZM0.751023 14.6549C1.06321 14.3557 1.46431 13.9565 1.85364 13.5658C1.82096 13.3572 1.76593 13.1524 1.68974 12.9553C1.47513 12.392 1.20692 12.3115 0.938719 12.0164C0.876955 11.9503 0.814469 11.8851 0.751023 11.8207V14.6549ZM1.50205 11.4533C1.93007 11.8626 2.27638 12.3495 2.52272 12.8883C2.91012 12.4932 3.19179 12.2043 3.19179 12.2043C3.19179 12.2043 3.41409 12.4329 3.73493 12.7599C3.97526 12.2714 4.2997 11.8292 4.69383 11.4533C4.95291 11.2089 5.20862 10.9609 5.46048 10.7092C5.3891 10.6484 5.32085 10.5833 5.25716 10.5146C4.98896 10.2194 3.19179 8.44919 3.19179 8.44919C3.19179 8.44919 1.39462 10.2194 1.12641 10.5146C1.03076 10.6138 0.929586 10.7078 0.823602 10.796C1.04663 11.0183 1.27301 11.2372 1.50205 11.4533ZM4.31003 5.05072C2.51575 5.97766 1.24634 7.67726 0.867341 9.66092C1.75295 8.80367 3.19179 7.32253 3.19179 7.32253C3.19179 7.32253 3.47465 7.61357 3.8647 8.01059C4.08653 7.6167 4.36603 7.25813 4.69383 6.94714C4.95291 6.70249 5.20886 6.45447 5.46072 6.20285C5.38934 6.14205 5.32109 6.07716 5.25716 6.00818C5.14012 5.87937 4.73277 5.47081 4.31003 5.05072ZM5.63255 1.68998L5.758 2.441H6.00818L6.22184 2.0435L5.63255 1.68998ZM8.42299 2.0435L8.63665 2.441H8.88683L9.01228 1.68998L8.42299 2.0435ZM8.26125 3.19203L7.32253 1.68998L6.38358 3.19203H4.69383L5.30667 3.80486C5.90316 3.64697 6.51768 3.56742 7.1346 3.56742H7.51023C8.09471 3.56742 8.67726 3.63904 9.24467 3.78083L9.95099 3.19203H8.26125ZM10.3348 5.05072C9.91206 5.47081 9.50471 5.87937 9.38767 6.00818C9.32374 6.07716 9.25549 6.14205 9.18411 6.20285C9.43597 6.45447 9.69192 6.70249 9.95099 6.94714C10.2788 7.25813 10.5583 7.6167 10.7801 8.01059C11.1702 7.61357 11.453 7.32253 11.453 7.32253C11.453 7.32253 12.8919 8.80367 13.7775 9.66092C13.3985 7.67726 12.1291 5.97766 10.3348 5.05072ZM13.7061 11.0777C10.5953 11.0777 8.07356 13.5994 8.07356 16.7104C8.07356 19.8212 10.5953 22.343 13.7061 22.343C16.8169 22.343 19.3387 19.8212 19.3387 16.7104C19.3387 13.5994 16.8169 11.0777 13.7061 11.0777ZM16.7102 17.0858H16.4949C16.3252 18.3418 15.3375 19.3295 14.0815 19.4987V19.7145C14.0815 19.9219 13.9135 20.0899 13.7061 20.0899C13.4987 20.0899 13.3307 19.9219 13.3307 19.7145V19.4987C11.8013 19.2978 10.7186 17.9032 10.9032 16.3718C11.0877 14.8405 12.4706 13.7429 14.0039 13.9109L14.1618 13.5506C14.1954 13.46 14.2668 13.3884 14.3572 13.3535C14.4475 13.3189 14.5485 13.3247 14.634 13.3694C14.8143 13.4778 14.8844 13.7039 14.7972 13.8952L14.7157 14.0817C15.6751 14.4523 16.3567 15.3156 16.4946 16.3348H16.7102C16.9176 16.3348 17.0858 16.503 17.0858 16.7104C17.0858 16.9178 16.9176 17.0858 16.7102 17.0858ZM13.7061 14.6451C12.8707 14.6451 12.1178 15.1483 11.7982 15.92C11.4783 16.6917 11.6552 17.5802 12.2456 18.1707C12.8364 18.7614 13.7246 18.938 14.4965 18.6184C15.2682 18.2988 15.7715 17.5458 15.7715 16.7104C15.7715 15.5698 14.8467 14.6451 13.7061 14.6451Z" fill="#440911"/>
</svg>
