<svg width="16" height="14" viewBox="0 0 16 14" fill="none" xmlns="http://www.w3.org/2000/svg">
<path d="M7.99997 3.16327L7.39576 2.34154C7.13506 1.98698 6.84414 1.68974 6.5295 1.45045L6.52946 1.45042C5.91368 0.982026 5.2269 0.75 4.4696 0.75C3.4366 0.75 2.49963 1.15419 1.81639 1.88296L7.99997 3.16327ZM7.99997 3.16327L8.60422 2.34157M7.99997 3.16327L8.60422 2.34157M8.60422 2.34157C8.86506 1.98685 9.1559 1.68969 9.47047 1.45037C10.0864 0.981996 10.7731 0.75 11.5304 0.75C12.5634 0.75 13.5003 1.15419 14.1835 1.883C14.8607 2.60544 15.25 3.60996 15.25 4.72902C15.25 5.84069 14.839 6.89371 13.8397 8.07959L13.8397 8.07962C12.9222 9.16841 11.5882 10.2897 9.95929 11.6548L9.95922 11.6549L9.9443 11.6674C9.39765 12.1256 8.77531 12.6474 8.12923 13.203L8.12884 13.2034C8.09544 13.2321 8.04984 13.25 8 13.25C7.95023 13.25 7.90473 13.2323 7.87097 13.2032L7.87046 13.2027C7.21953 12.643 6.59307 12.1179 6.04362 11.6573L6.04112 11.6552L6.04109 11.6552M8.60422 2.34157L6.04109 11.6552M6.04109 11.6552C4.412 10.2898 3.07789 9.16842 2.16045 8.07974C1.16104 6.89367 0.75 5.84064 0.75 4.72914C0.75 3.60998 1.13927 2.60547 1.81633 1.88303L6.04109 11.6552Z" stroke="#0118B5" stroke-width="1.5"/>
</svg>
