<svg width="20" height="19" viewBox="0 0 20 19" fill="none" xmlns="http://www.w3.org/2000/svg">
<path fill-rule="evenodd" clip-rule="evenodd" d="M0 9.5C0 4.25329 4.47715 0 10 0C15.5228 0 20 4.25329 20 9.5C20 14.7467 15.5228 19 10 19C4.47715 19 0 14.7467 0 9.5ZM11.1429 5.15714C11.1429 5.75677 10.6312 6.24286 10 6.24286C9.36882 6.24286 8.85714 5.75677 8.85714 5.15714C8.85714 4.55752 9.36882 4.07143 10 4.07143C10.6312 4.07143 11.1429 4.55752 11.1429 5.15714ZM10 8.14286C10.4734 8.14286 10.8571 8.50743 10.8571 8.95714V14.3857C10.8571 14.8354 10.4734 15.2 10 15.2C9.52661 15.2 9.14286 14.8354 9.14286 14.3857V8.95714C9.14286 8.50743 9.52661 8.14286 10 8.14286Z" fill="#7E9DFE"/>
</svg>
