<svg width="19" height="19" viewBox="0 0 19 19" fill="none" xmlns="http://www.w3.org/2000/svg">
<path d="M18.619 16.7846L14.9275 7.84315C14.8594 7.67802 14.7437 7.53685 14.5952 7.43752C14.4468 7.33818 14.2721 7.28516 14.0935 7.28516C13.9149 7.28516 13.7402 7.33818 13.5917 7.43752C13.4433 7.53685 13.3276 7.67802 13.2594 7.84315L9.56803 16.7846C9.52213 16.8942 9.49835 17.0118 9.49805 17.1307C9.49775 17.2496 9.52094 17.3673 9.56629 17.4772C9.61164 17.5871 9.67825 17.6869 9.7623 17.771C9.84635 17.8551 9.94618 17.9217 10.0561 17.9671C10.1659 18.0124 10.2837 18.0356 10.4026 18.0353C10.5214 18.035 10.6391 18.0113 10.7487 17.9654C10.8584 17.9195 10.9579 17.8524 11.0415 17.7679C11.1252 17.6835 11.1913 17.5833 11.2361 17.4732L11.988 15.6525H16.199L16.9508 17.4732C17.019 17.6384 17.1347 17.7796 17.2832 17.879C17.4317 17.9784 17.6064 18.0314 17.7851 18.0314C17.9334 18.0313 18.0793 17.9947 18.2101 17.9248C18.3408 17.8549 18.4524 17.7538 18.5348 17.6305C18.6171 17.5073 18.6679 17.3656 18.6825 17.218C18.6971 17.0705 18.6752 16.9216 18.6185 16.7846H18.619ZM12.7332 13.8478L14.0937 10.5522L15.4542 13.8478H12.7332Z" fill="#7E9DFE"/>
<path d="M9.98563 13.0651C10.1258 12.8714 10.1834 12.6301 10.1458 12.394C10.1082 12.1579 9.97847 11.9464 9.78506 11.8059C9.77686 11.7997 9.16982 11.3494 8.2884 10.3814C9.91467 8.17971 10.8359 5.67488 11.2116 4.49609H12.5352C12.7745 4.49609 13.004 4.40103 13.1732 4.2318C13.3424 4.06258 13.4375 3.83307 13.4375 3.59375C13.4375 3.35443 13.3424 3.12492 13.1732 2.9557C13.004 2.78647 12.7745 2.69141 12.5352 2.69141H7.77734V1.87109C7.77734 1.63178 7.68228 1.40226 7.51305 1.23304C7.34383 1.06382 7.11432 0.96875 6.875 0.96875C6.63568 0.96875 6.40617 1.06382 6.23695 1.23304C6.06772 1.40226 5.97266 1.63178 5.97266 1.87109V2.69141H1.21484C0.975527 2.69141 0.746013 2.78647 0.57679 2.9557C0.407568 3.12492 0.3125 3.35443 0.3125 3.59375C0.3125 3.83307 0.407568 4.06258 0.57679 4.2318C0.746013 4.40103 0.975527 4.49609 1.21484 4.49609H9.30518C8.91471 5.60146 8.1957 7.34668 7.09895 8.94055C5.81064 7.23102 5.33199 6.12482 5.3283 6.1158C5.23399 5.89784 5.05755 5.72585 4.83725 5.63713C4.61695 5.54841 4.37055 5.55012 4.15151 5.64188C3.93246 5.73365 3.75842 5.90807 3.66713 6.12732C3.57585 6.34657 3.57468 6.59296 3.66389 6.81307C3.68768 6.86967 4.26066 8.21703 5.83197 10.2555C5.86971 10.3043 5.90703 10.3519 5.94436 10.3995C4.3349 12.2185 2.7558 13.3469 2.09504 13.7111C1.88493 13.8257 1.72895 14.019 1.66142 14.2486C1.59388 14.4783 1.62032 14.7253 1.73492 14.9354C1.84952 15.1455 2.04289 15.3015 2.2725 15.369C2.5021 15.4365 2.74913 15.4101 2.95924 15.2955C3.04783 15.2471 4.9526 14.1926 7.12766 11.785C8.05133 12.7726 8.68625 13.2386 8.72439 13.2656C8.82037 13.3354 8.92915 13.3855 9.04451 13.4131C9.15986 13.4407 9.27954 13.4453 9.39668 13.4267C9.51382 13.408 9.62614 13.3664 9.72719 13.3043C9.82825 13.2422 9.91607 13.1608 9.98563 13.0647V13.0651Z" fill="#7E9DFE"/>
</svg>
