<svg width="23" height="22" viewBox="0 0 23 22" fill="none" xmlns="http://www.w3.org/2000/svg">
<path d="M21.0125 12.9456C21.0125 11.331 19.7872 8.6635 16.4617 8.20718C13.1363 7.75109 8.16558 7.54064 5.43501 7.8562C2.70445 8.17199 0.359375 10.1383 0.359375 13.6478C0.359375 17.1572 2.63477 20.6679 7.53538 20.6679C12.4362 20.6679 13.7313 20.1065 16.1116 19.4395C18.4921 18.7727 20.2422 17.1935 20.6624 15.7539C21.0824 14.3146 21.0125 14.5605 21.0125 12.9456Z" fill="#FF5E61"/>
<path d="M7.53538 17.793C12.4362 17.793 13.7311 17.2316 16.1116 16.5646C18.4921 15.8976 20.2422 14.3184 20.6622 12.8791C20.771 12.5069 20.8464 12.2482 20.8993 12.04C20.9717 12.3367 21.0097 12.641 21.0125 12.9462C21.0125 14.5611 21.0821 14.3152 20.6622 15.7543C20.2422 17.1934 18.4921 18.7731 16.1116 19.4398C13.7311 20.1068 12.4362 20.668 7.53538 20.668C2.63454 20.668 0.359378 17.1578 0.359378 13.648C0.358918 13.1799 0.405838 12.7135 0.498988 12.2551C1.05881 15.2069 3.32914 17.793 7.53538 17.793Z" fill="#E80C00"/>
<path d="M15.1116 0.188933C13.4998 0.188933 10.8366 1.41437 10.3812 4.74086C9.92557 8.06712 9.71535 13.0393 10.0307 15.7703C10.346 18.5015 12.3084 20.8475 15.8124 20.8475C19.3162 20.8475 22.8203 18.5717 22.8203 13.6697C22.8203 8.76747 22.2595 7.47211 21.5939 5.09092C20.9281 2.70996 19.3512 0.959203 17.9148 0.538993C16.4783 0.119013 16.7232 0.188933 15.1116 0.188933Z" fill="#FD6C6F"/>
<path d="M14.4384 2.52439C13.0241 2.52439 10.6871 3.61137 10.2876 6.56181C9.88807 9.51225 9.7457 13.5839 10.0224 16.0063C10.2991 18.4287 12.6239 20.8478 15.6986 20.8478C18.7737 20.8478 21.2029 18.8291 21.2029 14.4812C21.2029 10.1332 20.711 8.98417 20.1267 6.87231C19.5426 4.76045 18.1589 3.20749 16.8982 2.83489C15.6378 2.46229 15.8529 2.52439 14.4384 2.52439Z" fill="#FD737D"/>
<path d="M15.6988 20.8473C13.4031 20.8363 11.3276 19.4784 10.3979 17.3794C11.4566 18.338 12.8332 18.8696 14.2613 18.8707C17.3359 18.8707 19.7656 16.8522 19.7656 12.5043C19.7656 8.15638 19.2737 7.0073 18.6895 4.89544C18.5678 4.45683 18.407 4.02972 18.2097 3.61963C19.1389 4.50421 19.8029 5.63052 20.127 6.87183C20.7112 8.98369 21.2031 10.133 21.2031 14.4807C21.2031 18.8288 18.7734 20.8473 15.6988 20.8473Z" fill="#FD4E65"/>
<path d="M12.7835 5.23068C12.2706 5.06899 12.1473 6.46302 12.0592 7.34162C12.0231 7.95917 12.0997 8.57787 12.2853 9.16782C12.2853 9.16782 12.5199 8.2768 12.8396 7.27607C13.1593 6.27534 13.2888 6.22267 13.2651 5.79993C13.2479 5.48943 13.2969 5.3926 12.7835 5.23068Z" fill="white"/>
<path d="M15.8125 21.2075C15.7032 21.2075 15.5951 21.2041 15.4877 21.1983C14.5284 21.173 13.5882 20.9246 12.7413 20.4734C11.4742 20.7045 9.88425 20.8483 7.36506 20.8483C2.33588 20.8483 0 17.2483 0 13.6483C0 10.0486 2.40787 8.03289 5.2095 7.70882C6.78063 7.56139 8.35981 7.51585 9.93669 7.57243C10.0193 6.54111 10.1223 5.55257 10.2421 4.67627C10.7093 1.26215 13.4405 0.00451017 15.0938 0.00451017C16.7468 0.00451017 16.4954 -0.0674798 17.9688 0.36377C19.4421 0.79502 21.0593 2.59201 21.7421 5.03576C22.425 7.47951 23 8.80914 23 13.8404C23 18.8716 19.4062 21.2075 15.8125 21.2075ZM9.88287 16.1763C9.78558 15.2418 9.73613 14.3029 9.73475 13.3636C9.71129 11.8385 9.76396 10.108 9.87482 8.43907C8.5008 8.39376 7.12517 8.43585 5.75644 8.56488C3.23955 8.85376 1.07801 10.476 1.07801 13.6934C1.07801 16.9109 3.17561 19.9483 7.69258 19.9483C9.03647 19.9653 10.3799 19.8951 11.7146 19.7383C11.0934 19.1628 10.6111 18.454 10.3035 17.6653C10.0871 17.1936 9.9452 16.6915 9.88287 16.1763ZM10.7323 15.6204C10.8914 16.927 11.5035 18.1368 12.4616 19.0393C13.3177 19.7162 14.4523 20.1295 15.8571 20.1295C16.5294 20.1311 17.1985 20.0348 17.8429 19.8436C19.5541 19.0294 20.6641 17.143 20.6641 14.1997C20.6641 10.1503 20.2034 9.08008 19.6563 7.11312C19.1091 5.14593 17.9929 3.69992 16.8125 3.35262C15.632 3.00555 15.8334 3.06328 14.5089 3.06328C13.1843 3.06328 11.3551 4.07597 10.9809 6.82378C10.6065 9.57182 10.4733 13.3641 10.7323 15.6204ZM14.1954 1.17245C14.1954 1.14048 14.2032 1.11081 14.2062 1.07953C12.9334 1.50618 11.8963 2.44389 11.3436 3.66703C12.1435 2.75462 13.2834 2.21136 14.4958 2.16513C14.6239 2.16513 14.7349 2.16513 14.8396 2.16398C14.4571 1.97906 14.2087 1.59703 14.1954 1.17245ZM16.1462 0.93877C15.9158 0.91508 15.6846 0.90312 15.453 0.90289C15.2639 0.90289 15.0981 0.9068 14.9489 0.91301C14.9268 0.96683 14.915 1.02433 14.9141 1.08252C14.9622 1.39256 15.2292 1.62118 15.5429 1.62118C15.8567 1.62118 16.1237 1.39256 16.1718 1.08252C16.1711 1.03353 16.1621 0.985 16.1462 0.93877ZM20.9774 5.60639C20.3665 3.41173 19.1013 1.79805 17.7843 1.41073C17.3599 1.28584 17.0968 1.1897 16.8838 1.1161C16.885 1.13496 16.8905 1.1529 16.8905 1.17245C16.8716 1.6497 16.5641 2.06738 16.1138 2.227C16.3355 2.27415 16.6062 2.35281 17.066 2.48851C18.383 2.87583 19.8283 4.48974 20.4387 6.6844C21.0491 8.87906 21.5625 10.0728 21.5625 14.5911C21.5726 15.4658 21.4595 16.3373 21.2262 17.18C21.7757 16.2087 22.1016 14.9913 22.1016 13.5131C22.1016 8.99475 21.5876 7.80082 20.9774 5.60593V5.60639Z" fill="#440911"/>
</svg>
