<svg width="17" height="21" viewBox="0 0 17 21" fill="none" xmlns="http://www.w3.org/2000/svg">
<path d="M5.15388 8.85112C5.15388 6.98205 6.65197 5.46687 8.49997 5.46687C10.348 5.46687 11.8461 6.98205 11.8461 8.85112C11.8461 10.7202 10.348 12.2354 8.49997 12.2354C6.65197 12.2354 5.15388 10.7202 5.15388 8.85112Z" fill="#7E9DFE"/>
<path fill-rule="evenodd" clip-rule="evenodd" d="M0.0302715 7.68214C0.384071 3.34098 3.97088 0 8.27765 0H8.72236C13.0291 0 16.6159 3.34098 16.9697 7.68214C17.1602 10.0195 16.4464 12.3403 14.9786 14.1559L10.0438 20.2598C9.24589 21.2467 7.75411 21.2467 6.95622 20.2598L2.02144 14.1559C0.553626 12.3403 -0.160217 10.0195 0.0302715 7.68214ZM8.49997 3.90491C5.79905 3.90491 3.60952 6.1194 3.60952 8.85112C3.60952 11.5828 5.79905 13.7973 8.49997 13.7973C11.2009 13.7973 13.3904 11.5828 13.3904 8.85112C13.3904 6.1194 11.2009 3.90491 8.49997 3.90491Z" fill="#7E9DFE"/>
</svg>
