<svg width="20" height="20" viewBox="0 0 20 20" fill="none" xmlns="http://www.w3.org/2000/svg">
<path d="M9.53846 19.0323C9.53846 18.4978 9.95174 18.0645 10.4615 18.0645H17.8462C18.0161 18.0645 18.1538 17.9201 18.1538 17.7419L18.1538 2.25807C18.1538 2.07991 18.0161 1.93548 17.8462 1.93548L10.4615 1.93549C9.95174 1.93549 9.53846 1.50221 9.53846 0.967743C9.53846 0.433275 9.95174 0 10.4615 0H17.8462C19.0357 0 20 1.01097 20 2.25807V17.7419C20 18.989 19.0357 20 17.8462 20H10.4615C9.95174 20 9.53846 19.5667 9.53846 19.0323Z" fill="#7E9DFE"/>
<path d="M0 11.439C0 12.1516 0.551033 12.7293 1.23077 12.7293H7.20737C7.23559 13.1879 7.27092 13.6462 7.31335 14.1039L7.34986 14.4977C7.40922 15.138 8.05779 15.5215 8.61116 15.2434C10.8609 14.1131 12.8976 12.5663 14.6232 10.6774L14.66 10.6371C14.9888 10.2772 14.9888 9.70975 14.66 9.34992L14.6232 9.30956C12.8976 7.42069 10.8609 5.87389 8.61116 4.74354C8.05779 4.46551 7.40922 4.84898 7.34986 5.48929L7.31335 5.8831C7.27092 6.34081 7.23559 6.79907 7.20737 7.25768L1.23077 7.25768C0.551035 7.25768 0 7.83538 0 8.54801V11.439Z" fill="#7E9DFE"/>
</svg>
