<svg width="20" height="24" viewBox="0 0 20 24" fill="none" xmlns="http://www.w3.org/2000/svg">
<path d="M5.00012 7.11504C4.50452 7.11504 4.10693 6.71848 4.10693 6.22884L4.11384 1.76477C4.11384 1.53018 4.20806 1.30616 4.37544 1.14078C4.54283 0.975411 4.76957 0.882324 5.00702 0.882324L14.871 0.892554C15.1081 0.892554 15.3352 0.98564 15.5026 1.15101C15.67 1.31639 15.7642 1.54075 15.7642 1.775L15.7573 6.24248C15.7573 6.73178 15.3559 7.12493 14.8641 7.12493C14.8603 7.12902 5.00012 7.11504 5.00012 7.11504Z" fill="white"/>
<path d="M5.00717 1.76831L14.8674 1.77888L14.8605 6.24295L5.00027 6.23272L5.00717 1.76831ZM5.00717 0C4.53262 0 4.07913 0.186173 3.74401 0.516921C3.4089 0.84801 3.2208 1.29605 3.21735 1.7649L3.21045 6.22556C3.21045 7.20109 4.00941 7.99386 4.99682 7.99386L14.8574 8.00443H14.8608C15.3354 8.00443 15.7889 7.81826 16.124 7.48751C16.4588 7.15642 16.6472 6.70838 16.651 6.23954L16.6579 1.77888C16.6579 0.803342 15.8589 0.0102293 14.8715 0.0102293L5.00717 0Z" fill="#4C2F1B"/>
<path d="M3.77175 5.31543L0.893066 8.67644V23.1134H13.6285V8.67644L16.0744 5.31543H3.77175Z" fill="white"/>
<path d="M13.6286 23.9965H0.893184C0.397929 23.9965 0 23.6002 0 23.114V8.67705C0 8.46667 0.0731665 8.26686 0.212942 8.10489L3.09163 4.74729C3.26281 4.54748 3.51027 4.43359 3.77567 4.43359H16.0787C16.4135 4.43359 16.7206 4.61977 16.8742 4.91267C17.0278 5.20898 16.9998 5.56427 16.8045 5.83296L14.526 8.95972V23.114C14.526 23.3486 14.4318 23.5726 14.2644 23.738C14.0928 23.9071 13.8661 23.9965 13.6286 23.9965ZM1.78982 22.2316H12.7355V8.67705C12.7355 8.49088 12.7948 8.31152 12.9028 8.16013L14.3299 6.20224H4.18706L1.78982 9.00132V22.2316Z" fill="#4C2F1B"/>
<path d="M16.2841 5.25391L13.6287 8.96987V23.1139H19.103V8.83553L16.2841 5.25391Z" fill="#EFEFEF"/>
<path d="M19.1033 23.9997H13.6285C13.1333 23.9997 12.7354 23.6032 12.7354 23.1173V8.96947C12.7354 8.7867 12.7913 8.60769 12.8993 8.45937L15.5547 4.74306C15.7186 4.51563 15.9802 4.37412 16.2663 4.37071C16.5524 4.36014 16.8175 4.49108 16.9921 4.71203L19.8111 8.29365C19.9333 8.4488 19.9995 8.63838 19.9995 8.83478V23.1132C19.9964 23.6032 19.5954 23.9997 19.1033 23.9997ZM14.5221 22.2311H18.2066V9.13825L16.3188 6.7388L14.5217 9.2518V22.2311H14.5221Z" fill="#4C2F1B"/>
<path d="M13.6285 9.03906H0.893066V16.2163H13.6285V9.03906Z" fill="#526FFF"/>
<path d="M13.6286 17.098H0.893184C0.397929 17.098 0 16.7018 0 16.2156V9.0387C0 8.54906 0.401381 8.15625 0.893184 8.15625H13.6286C14.1242 8.15625 14.5218 8.55281 14.5218 9.0387V16.2159C14.5222 16.7052 14.1242 17.098 13.6286 17.098ZM1.78982 15.3331H12.7355V9.92081H1.78982V15.3331Z" fill="#4C2F1B"/>
<path d="M5.27905 11.2207H6.40623L7.27526 13.0926L8.12668 11.2139H9.24316V14.0337H8.58362V11.9688H8.53117L7.53686 14.0337H6.96809L5.99105 11.9688H5.93859V14.0372H5.2825V11.2207H5.27905Z" fill="white"/>
</svg>
