<svg width="16" height="21" viewBox="0 0 16 21" fill="none" xmlns="http://www.w3.org/2000/svg">
<path fill-rule="evenodd" clip-rule="evenodd" d="M9.05497 1.06329C9.05497 0.476052 8.58265 0 8 0C7.41736 0 6.94504 0.476052 6.94504 1.06329V1.86076H6.35698C4.00961 1.86076 2.06679 3.70027 1.92026 6.06155L1.68711 9.81864C1.59821 11.2511 1.12106 12.6315 0.307622 13.8096C-0.427353 14.874 0.226958 16.3441 1.50445 16.4986L5.09885 16.9333V18.076C5.09885 19.6909 6.39774 21 8 21C9.60227 21 10.9012 19.6909 10.9012 18.076V16.9333L14.4956 16.4986C15.773 16.3441 16.4274 14.874 15.6924 13.8096C14.8789 12.6315 14.4018 11.2511 14.3129 9.81864L14.0797 6.06155C13.9332 3.70027 11.9904 1.86076 9.64302 1.86076H9.05497V1.06329ZM6.6813 18.076C6.6813 18.81 7.2717 19.4051 8 19.4051C8.72831 19.4051 9.31871 18.81 9.31871 18.076V17.2785H6.6813V18.076Z" fill="#7E9DFE"/>
</svg>
