<svg width="22" height="21" viewBox="0 0 22 21" fill="none" xmlns="http://www.w3.org/2000/svg">
<path d="M17.9105 17.5389C17.5658 17.7452 17.4168 17.5017 16.1652 17.9858C14.9136 18.4701 13.3653 18.7985 12.7331 18.6446C12.101 18.4906 11.1045 18.6214 10.331 17.6851C9.55755 16.7485 7.88425 15.5515 7.06152 14.6446C6.23857 13.7379 5.49137 11.8522 5.09103 10.4249C4.69069 8.99798 4.15714 6.25044 4.98254 5.2887C5.80771 4.32651 6.58388 3.39418 6.92607 2.52132C7.26804 1.64847 7.40416 1.10066 7.95598 0.902828C8.50803 0.704999 10.5527 1.07882 10.9762 0.891243C11.3999 0.703885 14.0729 0.233819 15.2404 0.934017C16.4078 1.63399 17.9662 3.9665 18.5405 4.3557C19.1146 4.74489 20.5007 5.91382 20.7716 7.01836C21.0423 8.12313 21.1392 10.2656 21.3194 10.8912C21.4994 11.517 21.1809 13.3086 20.9461 13.9163C20.7115 14.5243 19.6399 15.6335 18.9132 16.5364C18.1863 17.4396 18.2542 17.3322 17.9105 17.5389Z" fill="#FAAD91"/>
<path d="M21.319 10.8922C21.4992 11.5178 21.1802 13.3096 20.9456 13.9174C20.711 14.5251 19.6392 15.6346 18.9125 16.5375C18.1861 17.4406 18.2544 17.3326 17.9098 17.5396C17.5652 17.7463 17.4161 17.5021 16.1645 17.9865C14.999 18.4371 13.577 18.7528 12.8763 18.6697C13.0338 18.4563 13.2022 18.2511 13.3816 18.0555C13.3816 18.0555 18.7651 16.6262 19.5468 11.956C19.7244 10.8942 19.7604 8.55996 16.1418 4.39553C14.3438 2.32613 12.5306 1.3205 11.1611 0.831945C11.9019 0.62565 14.1843 0.301728 15.2402 0.935092C16.4076 1.63484 17.9659 3.96757 18.5403 4.35677C19.1144 4.74597 20.5005 5.91489 20.7714 7.01944C21.0421 8.1242 21.1388 10.2665 21.319 10.8922Z" fill="#E16E48"/>
<path d="M3.67735 19.2407C3.16339 19.2153 2.73053 19.6292 2.15509 18.7807C1.57965 17.9321 0.916435 16.7714 0.767395 15.6366C0.618578 14.5017 0.349905 13.6944 0.922227 12.5693C1.49433 11.4441 1.46425 9.98218 1.99736 9.62439C2.5307 9.26661 3.88476 8.97499 4.53661 8.29016C5.18846 7.60534 7.28995 6.81202 8.44863 7.33154C9.60753 7.85107 9.93256 8.55839 9.93256 8.55839C10.6063 8.50849 11.2594 8.80122 11.6709 9.33679C12.3468 10.2415 13.0341 11.9413 12.8891 12.7799C12.7436 13.6184 13.0522 15.1709 12.5845 15.7629C12.1169 16.3548 11.1599 17.4602 10.9273 17.9869C10.6947 18.5135 9.09513 19.5869 8.19889 20.0037C7.30265 20.4205 5.98936 20.4063 4.94586 20.1494C3.90258 19.8928 4.19152 19.2663 3.67735 19.2407Z" fill="#FFD9C3"/>
<path d="M12.889 12.7795C12.744 13.6181 13.0521 15.1706 12.5847 15.7625C12.1168 16.3545 11.1598 17.4599 10.9272 17.9866C10.6946 18.5132 9.09527 19.5866 8.19881 20.0034C7.30278 20.4202 5.98927 20.4059 4.94599 20.1491C4.23466 19.974 4.14243 19.6273 3.99316 19.4164C5.20175 19.1862 6.94411 18.4969 8.75709 16.5717C12.077 13.0466 11.8484 10.4214 11.8484 10.4214L12.8649 12.0778C12.9113 12.3088 12.9193 12.5458 12.889 12.7795Z" fill="#FCA573"/>
<path d="M6.08894 9.41937C5.7913 8.99697 4.90152 9.98411 4.33254 10.5999C3.95225 11.0488 3.65729 11.5636 3.46191 12.1186C3.46191 12.1186 4.14941 11.5788 4.96345 11.0053C5.77794 10.4321 5.90648 10.4673 6.13015 10.1325C6.29412 9.88676 6.38635 9.84153 6.08894 9.41937Z" fill="white"/>
<path d="M21.3995 14.2441C20.5162 15.7345 19.8481 15.9753 19.5498 16.5545C19.2515 17.1338 19.1321 17.6054 18.5653 17.9456C18.4657 18.0057 18.3628 18.0601 18.2574 18.1087C18.165 18.1793 18.0683 18.2443 17.9685 18.3036C17.4013 18.6438 16.9241 18.5302 16.2678 18.5237C15.6115 18.5175 15.0859 18.9927 13.3436 19.0775C12.5917 19.1092 11.8441 18.9501 11.1699 18.6155C11.018 18.9024 10.8061 19.1533 10.549 19.3515C9.7038 20.027 9.3204 19.7136 8.96863 20.0419C8.61731 20.3703 7.51031 20.8671 7.15342 20.7974C6.79608 20.7274 6.34985 20.6426 5.99719 20.7399C5.37229 20.8413 4.73135 20.756 4.1548 20.4944C3.81417 20.3329 3.55106 20.0435 3.4223 19.6893C3.05204 19.7632 2.6673 19.6893 2.35073 19.483C1.82853 19.1285 1.42329 18.6266 1.18692 18.0414C1.08845 17.6905 0.783246 17.355 0.539302 17.0865C0.295358 16.8181 0.150105 15.6184 0.251247 15.1495C0.351944 14.6801 -0.11634 14.5161 0.0277988 13.4477C0.171715 12.3792 0.804856 12.0769 1.04524 11.6534C1.28539 11.2294 0.976396 10.7273 1.44201 9.90501C1.90762 9.0825 2.98053 8.76415 3.36126 8.61578C3.56421 8.53714 3.73976 8.32951 3.97568 8.09113C3.96477 7.96281 3.95808 7.83404 3.95519 7.70506C3.91977 5.02702 5.17558 4.29273 5.53915 3.95389C5.90273 3.61548 6.33314 3.31807 6.43517 2.41604C6.53721 1.514 6.91348 0.928756 7.53994 0.552258C8.16684 0.176205 8.8637 0.11806 9.71695 0.44666C10.5704 0.775261 11.0351 0.536664 11.5061 0.373811C11.9771 0.210959 13.2153 -0.549835 15.5912 0.724244C17.1057 1.53628 17.6368 2.53856 18.5422 3.55533C19.4475 4.5721 20.5273 5.20546 20.9562 6.5085C21.385 7.81154 21.3846 9.01255 21.7001 10.0634C22.0157 11.1143 22.2835 12.7539 21.3995 14.2441ZM5.31348 19.8499C5.69287 19.8272 6.0736 19.8628 6.4423 19.9557C6.79341 20.0359 8.01758 19.3326 8.34462 19.0475C8.67122 18.7623 9.05952 19.0677 9.85106 18.4869C10.6428 17.9062 10.5444 17.2648 10.7584 16.8872C10.9728 16.5091 11.5489 16.5403 11.9655 15.8069C12.3816 15.0737 12.0575 14.0719 11.9706 13.7012C11.8837 13.3303 12.374 12.9317 12.2758 12.1148C12.1778 11.2981 11.7378 10.5731 11.6023 10.1556C10.8736 7.89665 9.67841 9.70473 9.72408 9.62408L9.27584 10.415C9.47234 10.3027 9.70804 10.2815 9.92124 10.3568C10.3412 10.4813 10.5261 10.7799 10.2487 11.1247C9.97136 11.4694 9.8749 11.3038 9.41887 11.2426C8.96306 11.1813 8.56651 11.7372 8.56651 11.7372L8.51839 11.7512L7.66626 13.2556C7.86275 13.1436 8.09823 13.1222 8.31143 13.1977C8.73137 13.3222 8.91628 13.6205 8.63914 13.9654C8.362 14.31 8.26509 14.1445 7.80928 14.0835C7.35325 14.022 6.9567 14.578 6.9567 14.578L6.90858 14.5919L5.96956 16.2464C6.16628 16.1344 6.40176 16.113 6.61496 16.1883C7.0349 16.3128 7.21981 16.6111 6.94267 16.956C6.66553 17.3009 6.56862 17.1353 6.11281 17.0743C5.657 17.0128 5.26001 17.5686 5.26001 17.5686L5.21167 17.5829L4.58944 18.6817C4.74851 18.4003 3.70478 20.0241 5.31348 19.8499ZM2.34471 10.4085C1.929 11.1419 2.25404 11.6171 2.03973 11.9949C1.82541 12.3725 1.22279 12.62 1.13257 13.5947C1.04212 14.5691 1.50594 14.7416 1.42975 15.1673C1.35334 15.5933 1.38186 16.9992 1.63204 17.2567C1.89514 17.5283 2.12215 17.8329 2.30706 18.1628C2.97741 19.4101 3.7832 18.3192 3.87855 18.1873L3.82508 18.2815C3.76828 18.4386 3.84112 18.6133 3.99284 18.683C4.14477 18.7532 4.325 18.695 4.40743 18.5498C4.49008 18.4043 4.44731 18.2198 4.30941 18.1254C4.17151 18.0311 3.98415 18.0579 3.87855 18.1873L4.46045 17.1607L4.44753 17.1124C4.44753 17.1124 4.72044 16.4873 4.43216 16.131C4.14388 15.7748 3.95095 15.7777 4.10445 15.3633C4.25817 14.949 4.61016 14.9521 4.93431 15.2453C5.10919 15.3874 5.21278 15.599 5.21813 15.8245L6.15625 14.1701L6.14333 14.122C6.14333 14.122 6.41602 13.4964 6.12774 13.1402C5.83946 12.784 5.64653 12.7869 5.80025 12.3725C5.95397 11.9581 6.30574 11.9613 6.63011 12.2547C6.80477 12.3966 6.90858 12.6084 6.91393 12.8337L7.7674 11.3292L7.75448 11.2811C7.75448 11.2811 8.02716 10.6558 7.73888 10.2993C7.45083 9.94333 7.25768 9.94622 7.4114 9.53185C7.56512 9.11748 7.91711 9.1206 8.24125 9.41378C8.41613 9.55614 8.51973 9.76778 8.52485 9.99301L8.96105 9.22397C9.04148 9.08228 9.58529 7.45755 7.39424 7.79417C6.95782 7.86122 6.11459 7.89598 5.36093 8.23483C4.60749 8.57368 4.51882 9.19746 4.15391 9.31486C3.78922 9.43249 2.76042 9.67532 2.34471 10.4085ZM6.80165 4.02428C6.79407 4.03164 6.78628 4.03943 6.77848 4.04634C6.42337 4.36558 5.25533 5.06043 5.09226 7.33012C5.35425 7.22675 5.62448 7.14588 5.90006 7.08818C5.89115 7.00308 5.8829 6.91753 5.87577 6.83198C5.78889 5.78536 6.77959 5.76486 6.87918 6.71502C6.88474 6.76648 6.89143 6.82329 6.89811 6.87921C6.9068 6.87654 6.91749 6.87453 6.92574 6.87186C7.12913 6.80525 7.33766 6.75668 7.54952 6.72705C7.24921 5.84128 6.99948 4.9388 6.80165 4.02428ZM7.79681 1.78356C7.71995 1.98562 7.6647 2.19526 7.63173 2.40868C7.60388 2.58958 7.56155 2.76781 7.50496 2.94157C7.78879 4.22724 8.15972 5.49218 8.61419 6.72772C8.62889 6.7696 8.63758 6.81304 8.64025 6.85693C8.66119 6.86651 8.68258 6.87253 8.7033 6.883C9.72497 7.40898 10.0369 8.02541 10.0369 8.02541C10.0369 8.02541 10.7567 7.92895 11.7095 8.56989C12.2152 8.90985 12.5324 9.62297 12.6378 10.0768C12.743 10.5306 13.1691 11.2947 13.2275 12.1818C13.2859 13.0689 12.9109 13.6138 12.9809 14.0146C12.9865 14.0463 12.9936 14.0835 13.0012 14.1231C13.8032 14.9704 14.6863 15.7372 15.6382 16.4122C16.113 16.7428 15.785 17.721 14.9801 17.2503C14.2871 16.8237 13.6477 16.3153 13.0758 15.7365C13.0368 15.9392 12.9662 16.1344 12.8662 16.3146C12.3997 17.1371 11.8075 17.1333 11.5669 17.5573C11.5562 17.5767 11.5464 17.5972 11.5364 17.6179C12.2687 17.9924 13.0905 18.155 13.9101 18.0875C15.6329 17.9422 16.1698 17.4724 16.8172 17.4541C17.0698 17.4468 17.2937 17.4541 17.508 17.447C16.9651 16.3088 15.3232 12.9709 13.0515 9.24981C11.4582 6.65287 9.70314 4.15907 7.79681 1.78289V1.78356ZM20.708 10.3089C20.4362 9.32444 20.4821 8.18671 20.1081 6.96743C19.7343 5.7486 18.693 5.18876 17.8373 4.25865C16.9818 3.32854 16.4966 2.39866 15.0318 1.68532C12.7354 0.565848 11.4845 1.3331 11.0133 1.50487C10.414 1.73099 9.75215 1.72698 9.1551 1.49417C9.02789 1.45184 8.89801 1.41709 8.76635 1.39036C9.65279 2.55661 11.5865 5.19744 13.79 8.8067C15.3885 11.4097 16.8524 14.0926 18.1761 16.8451C18.2278 16.7468 18.2806 16.6461 18.3408 16.5398C18.4691 16.3342 18.6275 16.1489 18.8102 15.9898C18.5406 14.8438 18.2026 13.7148 17.7974 12.6093C17.6027 12.0778 18.4383 11.4039 18.7255 12.2139C19.0726 13.1895 19.3582 14.1857 19.5808 15.1969C19.8254 14.9073 20.0504 14.6017 20.2538 14.2817C21.1819 12.8366 20.9796 11.2923 20.708 10.308V10.3089ZM19.5297 12.6187C19.3898 11.1722 19.0107 9.75909 18.4078 8.43689C17.7339 7.05988 16.8586 5.79115 15.8106 4.6728C15.2308 4.07998 15.7763 3.23631 16.3883 3.86878C17.3679 4.91696 18.2227 6.0752 18.9365 7.31942C20.1544 9.37791 20.4572 11.5767 20.5325 12.5002C20.6171 13.5437 19.6275 13.5657 19.5297 12.6187ZM17.1687 8.7069C17.49 9.29548 16.7272 10.0302 16.2172 9.10033C15.8401 8.40949 15.423 7.74159 14.9679 7.09976C13.8161 5.50065 12.4072 4.10359 10.7988 2.96519C10.3251 2.63637 10.6544 1.66037 11.4575 2.12843C12.2408 2.58468 13.9241 3.82111 16.033 6.86094C16.4442 7.45554 16.8234 8.07153 17.1687 8.7069Z" fill="#440911"/>
</svg>
