<svg width="23" height="21" viewBox="0 0 23 21" fill="none" xmlns="http://www.w3.org/2000/svg">
<path d="M2.22643 18.8949C-0.305568 17.0867 -0.586751 12.2866 1.88865 10.423C4.3645 8.55939 5.37716 8.61576 7.12221 6.86488C8.86703 5.11377 9.71035 2.51507 11.8486 1.10376C13.9867 -0.307317 15.5052 0.708491 16.0686 0.595524C16.6324 0.482556 17.3066 0.0872828 17.7564 0.765087C18.2065 1.44267 18.0378 1.78179 18.2629 2.29003C18.4881 2.79828 19.5572 5.56519 18.2629 7.37312C16.969 9.18127 14.4363 10.5364 13.7046 12.2866C12.9732 14.0368 12.3185 17.7106 9.14709 19.2336C7.16802 20.1849 4.7582 20.7022 2.22643 18.8949Z" fill="#FFDAA4"/>
<path d="M18.2624 7.37305C16.9683 9.18053 14.4365 10.5364 13.7048 12.2866C12.9731 14.0368 12.3184 17.7106 9.14726 19.2335C7.16819 20.1846 4.75837 20.7021 2.2266 18.8948C1.33813 18.2606 0.727928 17.2574 0.415527 16.1421C0.718046 16.6101 1.11781 17.1866 1.56092 17.5026C4.09269 19.3099 6.5499 18.2826 8.31943 16.9829C10.3921 15.4591 10.707 13.5344 11.4385 11.7839C12.17 10.0337 16.1018 7.62077 17.3961 5.81329C18.69 4.00604 17.7945 1.23845 17.5693 0.730211C17.5354 0.653177 17.5075 0.573449 17.4864 0.491699C17.5947 0.562444 17.6867 0.655648 17.7559 0.765022C18.2064 1.44283 18.0373 1.78173 18.2624 2.28997C18.4876 2.79821 19.5567 5.5658 18.2624 7.37305Z" fill="#F5A623"/>
<path d="M13.0564 18.8868C11.1233 17.6129 10.8716 14.1313 13.8963 11.4138C16.9211 8.69633 19.1472 9.24769 19.9458 9.20592C20.7442 9.16414 21.8362 9.20592 21.9621 9.54572C22.0881 9.88529 21.9201 11.6685 21.9621 12.6028C22.0041 13.5366 21.6675 16.1692 19.6098 17.8673C17.2207 19.8388 14.7614 20.0101 13.0564 18.8868Z" fill="#FC5E68"/>
<path d="M21.962 12.6028C22.004 13.5369 21.6674 16.1692 19.6095 17.8676C17.2206 19.8388 14.7611 20.0101 13.0563 18.8868C12.2733 18.3711 11.7667 17.4934 11.6414 16.4513C12.3544 17.0483 13.9622 18.2177 15.4243 18.0228C17.3737 17.7629 19.4098 16.0731 20.2763 14.037C20.7994 12.8072 21.2056 11.5306 21.4895 10.2246C21.4895 10.2246 21.6928 10.1561 22.0092 10.082C22.0132 10.7758 21.931 11.9171 21.962 12.6028Z" fill="#EF3151"/>
<path d="M22.1339 12.5431C22.1772 13.5084 21.83 16.2286 19.7027 17.9838C17.234 20.0205 14.6928 20.1978 12.9309 19.0369C12.3261 18.6272 11.876 18.0264 11.6528 17.3309C11.0276 18.2093 10.1923 18.9169 9.22323 19.3895C7.5076 20.2132 5.47599 20.7139 3.3204 19.7382H3.31164V19.7347C2.88986 19.5431 2.48785 19.3111 2.11077 19.0416C-0.491522 17.186 -0.780566 12.2577 1.76423 10.3444C4.30903 8.43095 5.34842 8.48889 7.14085 6.69152C8.93283 4.89415 9.80109 2.22695 11.9989 0.777687C14.1965 -0.671799 15.7578 0.371633 16.3359 0.255746C16.9142 0.139635 17.6082 -0.266194 18.0711 0.428903C18.5337 1.124 18.3601 1.47256 18.5908 1.9945C18.8216 2.51644 19.921 5.35725 18.5908 7.21279C17.9289 8.13629 16.9533 8.94503 16.0464 9.74568C18.0149 8.76154 19.4381 9.06541 20.0495 9.03284C20.8744 8.98882 22.0029 9.03284 22.1332 9.38365C22.2634 9.73468 22.0903 11.5781 22.1339 12.5431ZM17.9329 7.01537C18.7282 5.92657 18.6402 4.47731 18.4275 3.4788C18.3828 3.80894 18.3082 4.13437 18.2045 4.45104C18.0102 5.04866 17.5635 4.31247 17.6906 3.94167C17.8512 3.48329 17.9489 3.00514 17.9808 2.52071L18.158 2.53957C18.1387 2.48927 18.1209 2.44547 18.1061 2.41223C17.8874 1.91724 17.9186 1.65829 17.6138 0.927487C17.5157 0.69167 17.2879 0.646079 17.0178 0.677297C17.0178 0.677297 17.6172 0.986104 17.3663 1.29693C17.1226 1.59855 16.8778 1.8995 16.6319 2.19932C16.3202 2.58067 15.4861 2.31319 15.9923 1.75913C16.3249 1.3944 16.6629 1.03439 17.0056 0.678869C16.6719 0.719744 16.2732 0.875383 15.973 0.936021C15.8746 0.949496 15.7747 0.944106 15.6783 0.9203C15.3679 1.02428 15.0672 1.15612 14.7804 1.31468C14.366 1.54263 13.7691 1.10042 14.4231 0.797451C14.4925 0.76511 14.5612 0.734791 14.629 0.706718C14.0224 0.652817 13.2344 0.758597 12.2167 1.43101C10.1373 2.80593 9.31755 5.50884 7.62169 7.21369C5.92606 8.91853 4.81862 8.9329 2.36096 10.6777C0.484535 12.0095 0.259049 15.439 1.78018 17.5011C1.76266 17.33 1.74402 17.1027 1.73841 16.8348C1.72268 16.1011 2.43642 16.4325 2.43036 16.8844C2.42048 17.3233 2.45035 17.7623 2.51974 18.1958L2.50717 18.2665C2.55231 18.3029 2.5988 18.3379 2.64596 18.373C2.75579 18.2863 2.90132 18.1686 3.07111 18.0262C3.62179 17.5658 4.0137 18.3328 3.62741 18.6308C3.52522 18.7099 3.43673 18.7741 3.35768 18.8273C3.59597 18.96 3.84346 19.0757 4.09792 19.1739C4.3115 19.1521 4.52396 19.1215 4.7353 19.0824L4.87611 19.405C5.08273 19.4474 5.2916 19.4764 5.50204 19.4916C5.50204 19.4916 5.21951 18.9868 5.59322 18.8761C5.98108 18.7624 6.35884 18.6176 6.72334 18.4428C7.37712 18.1271 7.56779 18.8796 7.13187 19.084C6.76579 19.2547 6.38669 19.396 5.99815 19.5065C7.15725 19.4815 8.23976 19.0679 9.24501 18.5625C10.1721 18.0844 10.9418 17.3498 11.4633 16.4462C11.3139 15.0028 11.8686 13.2668 13.3828 11.7171C14.3591 10.1113 16.9928 8.30248 17.9329 7.01493V7.01537ZM21.4477 12.5508C21.4105 11.7256 21.3855 10.3238 21.2741 10.0237C21.1627 9.72345 20.1981 9.68594 19.4934 9.72367C18.7882 9.76118 16.9948 9.44631 14.3227 11.8471C11.651 14.248 11.6997 17.3233 13.4073 18.4482C14.9134 19.4407 17.086 19.1159 19.1954 17.3749C21.0145 15.8738 21.4848 13.3757 21.4477 12.5506V12.5508ZM14.1855 8.05836C14.5639 7.7637 14.9383 7.4751 15.2954 7.17798C15.9078 6.66816 16.1194 7.52002 15.7219 7.85376C15.3565 8.15965 14.9733 8.45655 14.585 8.76064C14.1567 9.09573 13.5144 8.58187 14.1855 8.05836ZM17.0968 5.20318C17.3549 4.77624 18.0443 4.97343 17.6974 5.60339C17.6589 5.67347 17.619 5.74286 17.5774 5.81114C17.3425 6.19518 17.069 6.55385 16.7606 6.88174C16.3968 7.2732 15.7664 6.81661 16.2988 6.24616C16.6002 5.92725 16.8675 5.57779 17.0966 5.20363L17.0968 5.20318ZM14.2111 3.81253C14.5075 3.4505 14.8098 3.09273 15.1175 2.73991C15.4295 2.38102 16.2299 2.69117 15.7354 3.27981C15.4596 3.60816 15.1815 3.93471 14.9015 4.25946C14.6216 4.58332 13.8057 4.3082 14.2111 3.81253ZM12.588 5.80193C12.8889 5.42709 13.1921 5.05405 13.4973 4.68259C13.9602 4.1182 14.411 4.82138 14.0833 5.19554C13.7823 5.53894 13.4859 5.88592 13.1935 6.23651C12.9067 6.58147 12.157 6.33982 12.588 5.80193ZM12.2264 2.51981C12.4034 2.30263 12.5952 2.09759 12.8 1.90646C12.9291 1.78608 13.0632 1.67087 13.2016 1.56127C13.7734 1.10761 14.0083 1.80495 13.6732 2.0922C13.6135 2.14408 13.5533 2.19618 13.4931 2.253C13.2633 2.46816 13.0511 2.70105 12.8584 2.9499C12.5689 3.32024 11.7694 3.07836 12.2264 2.51981ZM10.7904 4.90448C11.0082 4.46586 11.2281 4.0378 11.4682 3.6286C11.8392 2.99751 12.3877 3.60569 12.1597 4.00276C11.9171 4.42476 11.6964 4.8672 11.4745 5.31884C11.2429 5.78935 10.4506 5.587 10.7904 4.90448ZM9.45949 7.40301C9.73439 6.96641 9.97514 6.52353 10.2018 6.08221C10.5449 5.41317 11.0958 6.09322 10.8787 6.50826C10.6579 6.93744 10.4156 7.35495 10.1528 7.75966C9.94393 8.07677 9.07679 8.0112 9.45949 7.40301ZM7.49008 9.32638C7.92983 9.06114 8.33633 8.74402 8.70039 8.38176C9.21514 7.85713 9.64208 8.49114 9.28948 8.85609C8.88679 9.26911 8.42953 9.62463 7.93005 9.91322C7.60867 10.105 6.98723 9.64035 7.49008 9.3257V9.32638ZM5.11171 10.742C5.60782 10.4098 6.07855 10.1412 6.52279 9.88987C7.09212 9.56758 7.33849 10.2449 6.93558 10.4605C6.47046 10.7029 6.01881 10.9695 5.58154 11.2594C5.23366 11.4941 4.57292 11.1024 5.11171 10.742ZM4.26142 12.304C3.96204 12.5806 3.69658 12.8917 3.4702 13.2306C3.21933 13.6052 2.3933 13.4615 2.7632 12.9036C2.99295 12.5571 3.26313 12.2395 3.56812 11.9574C3.75116 11.7883 3.93914 11.625 4.13206 11.4676C4.67444 11.0247 4.8678 11.7724 4.49836 12.0915C4.41998 12.1598 4.3416 12.2298 4.26142 12.304ZM1.79904 15.6265C1.8662 15.0675 2.00162 14.5188 2.20173 13.9929C2.45686 13.3341 3.04303 13.9513 2.88358 14.3704C2.72659 14.7856 2.6116 15.2155 2.53906 15.6537C2.47303 16.0483 1.7256 16.2107 1.79904 15.6265ZM5.68081 16.6477C5.57975 16.7595 5.47711 16.8714 5.37313 16.983C5.08251 17.2947 4.82199 17.5582 4.58954 17.7832C4.22863 18.1324 3.43224 17.7394 4.00337 17.197C4.3654 16.8572 4.707 16.4966 5.02659 16.1163C5.5647 15.4661 6.04015 16.2475 5.68036 16.6477H5.68081ZM7.33624 14.6177C7.10829 14.9229 6.87359 15.2252 6.63261 15.5241C6.25351 15.9939 5.40614 15.6591 5.95279 14.9604C6.18344 14.665 6.41274 14.3684 6.6398 14.0703C7.21384 13.3171 7.68166 14.1541 7.33579 14.6177H7.33624ZM9.62366 16.901C9.27466 17.4809 8.81762 17.9887 8.27749 18.3966C7.65605 18.8704 7.49772 18.028 7.89299 17.7129C8.29725 17.3931 8.65277 17.016 8.94833 16.5938C9.3984 15.9479 9.8761 16.4804 9.62366 16.901ZM10.7473 14.4672C10.6002 14.8921 10.4326 15.3096 10.2446 15.7181C9.93764 16.3847 9.45522 15.7606 9.66476 15.317C9.83163 14.9626 9.97919 14.5997 10.1072 14.2296C10.3715 13.4716 10.9025 14.0245 10.7473 14.4672ZM11.722 11.7526C11.4581 12.3208 11.2382 12.9083 11.0635 13.51L10.4378 13.1704C10.599 12.5409 10.8189 11.928 11.0947 11.3398C11.4462 10.6404 11.9138 11.3668 11.722 11.7526ZM12.3634 7.26624C12.0995 7.60492 11.8417 7.94831 11.5901 8.29597C11.2892 8.71191 10.5377 8.53269 10.9719 7.92495C11.2492 7.53754 11.5212 7.17056 11.7934 6.81459C12.2403 6.22999 12.6639 6.87995 12.3634 7.26624ZM7.5752 12.8239C7.86559 12.4311 8.15262 12.036 8.43627 11.6387C8.93081 10.9457 9.35843 11.6594 9.09207 12.0695C8.82211 12.4865 8.54744 12.9002 8.26783 13.3108C7.90916 13.8356 7.04922 13.5354 7.5752 12.8239ZM10.712 9.55972C10.4879 9.89413 10.268 10.2312 10.0522 10.571L9.84511 10.896C9.55022 11.3591 8.86883 11.0348 9.31575 10.3772C9.51204 10.0889 9.70115 9.80542 9.8788 9.5312C9.98435 9.3686 10.0886 9.20982 10.1919 9.05508C10.6303 8.39704 11.0114 9.1119 10.712 9.55883V9.55972ZM12.2098 9.78251C12.4795 9.49998 12.7629 9.2307 13.0587 8.9758C13.6087 8.4981 13.9081 9.29381 13.5564 9.59364C13.2564 9.84697 12.9673 10.1129 12.69 10.3907C12.6185 10.4628 12.5507 10.5353 12.4863 10.6081C12.1092 11.0344 11.4426 10.6474 12.0077 10.0037C12.0721 9.92984 12.1397 9.85595 12.2098 9.78184V9.78251Z" fill="#440911"/>
<path d="M18.7726 10.5493C18.5586 10.0666 17.4684 10.8504 16.7743 11.3364C16.3037 11.6973 15.9046 12.1432 15.5974 12.6505C15.5974 12.6505 16.3945 12.2653 17.327 11.8745C18.2597 11.4838 18.3805 11.5464 18.6718 11.2637C18.8854 11.0562 18.9869 11.0319 18.7726 10.5493Z" fill="white"/>
</svg>
