<svg width="35" height="27" viewBox="0 0 35 27" fill="none" xmlns="http://www.w3.org/2000/svg">
<path d="M31.9118 26.6304H3.08824C1.33824 26.6304 0 25.2989 0 23.5577V3.07274C0 1.33152 1.33824 0 3.08824 0H31.9118C33.6618 0 35 1.33152 35 3.07274V23.5577C35 25.2989 33.6618 26.6304 31.9118 26.6304ZM3.08824 2.04849C2.47059 2.04849 2.05882 2.45819 2.05882 3.07274V23.5577C2.05882 24.1722 2.47059 24.5819 3.08824 24.5819H31.9118C32.5294 24.5819 32.9412 24.1722 32.9412 23.5577V3.07274C32.9412 2.45819 32.5294 2.04849 31.9118 2.04849H3.08824Z" fill="#7E9DFE"/>
<path d="M22.4458 12.1738C20.1441 12.1738 18.261 10.2906 18.261 7.98898C18.261 5.68735 20.1441 3.8042 22.4458 3.8042C24.7474 3.8042 26.6306 5.68735 26.6306 7.98898C26.6306 10.2906 24.7474 12.1738 22.4458 12.1738ZM22.4458 5.89659C21.295 5.89659 20.3534 6.83817 20.3534 7.98898C20.3534 9.1398 21.295 10.0814 22.4458 10.0814C23.5966 10.0814 24.5382 9.1398 24.5382 7.98898C24.5382 6.83817 23.5966 5.89659 22.4458 5.89659Z" fill="#7E9DFE"/>
<path d="M28.2111 26.6306L11.18 10.5515L1.4628 19.5894L0 18.1181L11.18 7.60889L29.6739 25.1593L28.2111 26.6306Z" fill="#7E9DFE"/>
<path d="M33.061 21.3045L27.7594 16.5219L23.3415 20.5436L22.0652 18.8045L27.7594 13.6958L34.2391 19.5654L33.061 21.3045Z" fill="#7E9DFE"/>
</svg>
