<svg width="34" height="34" viewBox="0 0 34 34" fill="none" xmlns="http://www.w3.org/2000/svg">
<circle cx="17" cy="17" r="17" fill="#7E9DFE"/>
<path fill-rule="evenodd" clip-rule="evenodd" d="M21.0235 22.2131L21.024 22.2119L21.0354 22.182L23 11.775V11.7412C23 11.4819 22.9088 11.2555 22.7104 11.1198C22.5367 11.0009 22.337 10.9925 22.197 11.0036C22.049 11.0154 21.9093 11.0543 21.8127 11.0866C21.7629 11.1032 21.7213 11.1192 21.6916 11.1314C21.6766 11.1374 21.6645 11.1426 21.6557 11.1464L21.6471 11.1503L10.6932 15.665L10.6902 15.6662C10.6842 15.6684 10.6764 15.6715 10.667 15.6753C10.6481 15.6831 10.6225 15.6941 10.5924 15.7084C10.5332 15.7366 10.4515 15.78 10.3686 15.8397C10.2279 15.941 9.95983 16.1807 10.0051 16.5608C10.0426 16.8757 10.2491 17.0756 10.3884 17.1792C10.4631 17.2347 10.5345 17.2747 10.5868 17.3008C10.6133 17.3141 10.6358 17.3243 10.6525 17.3314C10.661 17.335 10.668 17.3379 10.6734 17.3401L10.6804 17.3428L10.6848 17.3445L12.6013 18.0224C12.5948 18.1487 12.6067 18.2776 12.6386 18.4046L13.5986 22.2307C13.7124 22.6843 14.103 23.0003 14.5496 23C14.9498 22.9997 15.3048 22.7453 15.4556 22.3657L16.9544 20.682L19.5284 22.7554L19.565 22.7722C19.7989 22.8794 20.0174 22.9134 20.2171 22.8847C20.4166 22.8561 20.5751 22.7682 20.6942 22.6681C20.8114 22.5696 20.8917 22.4585 20.9422 22.3748C20.9679 22.3322 20.987 22.2949 21.0003 22.2667C21.0069 22.2526 21.0122 22.2407 21.0161 22.2313L21.0211 22.2194L21.0228 22.2149L21.0235 22.2131ZM13.5888 18.1414C13.567 18.0545 13.6013 17.9627 13.6735 17.9145L20.1739 13.5773C20.1739 13.5773 20.5562 13.3335 20.5426 13.5773C20.5426 13.5773 20.6108 13.6204 20.4059 13.8212C20.2116 14.0119 15.7729 18.5144 15.3238 18.97C15.2979 18.9963 15.2824 19.0264 15.2733 19.0631L14.5488 21.9675L13.5888 18.1414Z" fill="white"/>
</svg>
