<svg width="20" height="20" viewBox="0 0 20 20" fill="none" xmlns="http://www.w3.org/2000/svg">
<path d="M6.87206 10C6.87206 8.27249 8.27248 6.87207 9.99999 6.87207C11.7275 6.87207 13.1279 8.27249 13.1279 10C13.1279 11.7275 11.7275 13.1279 9.99999 13.1279C8.27248 13.1279 6.87206 11.7275 6.87206 10Z" fill="#7E9DFE"/>
<path fill-rule="evenodd" clip-rule="evenodd" d="M9.48097 0.220188C9.76471 -0.073396 10.2353 -0.073396 10.519 0.220188L12.9947 2.78171H16.4965C16.8951 2.78171 17.2183 3.10488 17.2183 3.50354V7.00527L19.7798 9.48097C20.0734 9.76471 20.0734 10.2353 19.7798 10.519L17.2183 12.9947V16.4965C17.2183 16.8951 16.8951 17.2183 16.4965 17.2183H12.9947L10.519 19.7798C10.2353 20.0734 9.76471 20.0734 9.48097 19.7798L7.00526 17.2183H3.50354C3.10488 17.2183 2.78171 16.8951 2.78171 16.4965V12.9947L0.220188 10.519C-0.0733955 10.2353 -0.0733961 9.76472 0.220187 9.48097L2.78171 7.00526V3.50354C2.78171 3.10488 3.10488 2.78171 3.50354 2.78171H7.00526L9.48097 0.220188ZM9.99999 5.42841C7.47517 5.42841 5.42841 7.47518 5.42841 10C5.42841 12.5248 7.47517 14.5716 9.99999 14.5716C12.5248 14.5716 14.5716 12.5248 14.5716 10C14.5716 7.47518 12.5248 5.42841 9.99999 5.42841Z" fill="#7E9DFE"/>
</svg>
