<svg width="20" height="20" viewBox="0 0 15 14" fill="none" xmlns="http://www.w3.org/2000/svg">
<path d="M13.1409 8.377C13.079 8.43063 13.0416 8.50647 13.0376 8.58742C13.0011 9.33518 12.9385 10.082 12.8498 10.8266C12.7339 11.7997 11.9324 12.5748 10.9319 12.6846C8.40775 12.9615 5.79651 12.9615 3.27232 12.6846C2.27184 12.5748 1.4704 11.7997 1.35448 10.8266C1.05286 8.29478 1.05286 5.73704 1.35448 3.20519C1.4704 2.23213 2.27184 1.45703 3.27232 1.34725C4.93653 1.16464 6.64061 1.10251 8.33077 1.16069C8.45282 1.16489 8.55671 1.07372 8.56522 0.954112L8.60218 0.434957C8.60445 0.404391 8.60751 0.374152 8.61133 0.344254C8.6297 0.200702 8.52831 0.0591537 8.38103 0.0540315C6.63179 -0.00680676 4.87022 0.0573163 3.147 0.246401C1.63357 0.412465 0.411785 1.58294 0.233855 3.07651C-0.0779516 5.69386 -0.0779515 8.33796 0.233855 10.9553C0.411785 12.4489 1.63357 13.6194 3.147 13.7854C5.75448 14.0715 8.44978 14.0715 11.0573 13.7854C12.5707 13.6194 13.7925 12.4489 13.9704 10.9553C14.0975 9.88836 14.1728 8.81697 14.1963 7.74476C14.1992 7.61018 14.0311 7.54312 13.9349 7.63902C13.679 7.89398 13.4142 8.14012 13.1409 8.377Z" fill="#0118B5"/>
<path d="M3.99353 9.45269C3.82713 9.40769 3.71329 9.25725 3.71744 9.08785L3.762 7.26837C3.8258 4.66309 5.99532 2.58371 8.64975 2.58371L9.59555 2.58371C9.61532 2.12311 9.64228 1.66273 9.67643 1.20273L9.72746 0.515489C9.7586 0.0960793 10.2349 -0.138373 10.5959 0.0880521C12.1536 1.06526 13.5078 2.32441 14.5863 3.7984L14.9294 4.26728C15.0235 4.39601 15.0235 4.56939 14.9294 4.69812L14.5863 5.167C13.5078 6.64098 12.1536 7.90014 10.5959 8.87734C10.2986 9.06381 9.92206 8.93771 9.78139 8.65316C9.75186 8.59274 9.73289 8.52304 9.72746 8.44991L9.67643 7.76266C9.6357 7.21407 9.6052 6.66493 9.58493 6.11551L9.31859 6.07616C7.62148 5.82539 5.9429 6.6294 5.09968 8.09694L4.42099 9.27814C4.38866 9.3344 4.34279 9.37982 4.2895 9.41182C4.20304 9.46363 4.0964 9.48052 3.99353 9.45269Z" fill="#0118B5"/>
</svg>
