<svg width="70" height="60" viewBox="0 0 50 50" fill="none" xmlns="http://www.w3.org/2000/svg">
<circle cx="25" cy="25" r="25" fill="#818181"/>
<circle cx="25" cy="25" r="25" fill="url(#paint0_linear_1_22)"/>
<path fill-rule="evenodd" clip-rule="evenodd" d="M22.7174 9.22878C23.8153 7.5904 26.1847 7.59041 27.2826 9.22878L27.7168 9.87683C30.4374 13.9369 32.7748 18.2507 34.6978 22.7604L34.7885 22.9731C35.4662 24.5624 34.4424 26.3669 32.7538 26.5594C27.6006 27.1469 22.3994 27.1469 17.2462 26.5594C15.5576 26.3669 14.5338 24.5624 15.2115 22.9731L15.3022 22.7604C17.2252 18.2507 19.5626 13.9369 22.2832 9.87682L22.7174 9.22878ZM26.0054 14.3637C26.0054 14.9301 25.5553 15.3892 25 15.3892C24.4448 15.3892 23.9946 14.9301 23.9946 14.3637C23.9946 13.7974 24.4448 13.3382 25 13.3382C25.5553 13.3382 26.0054 13.7974 26.0054 14.3637ZM25 17.1838C25.4165 17.1838 25.754 17.5281 25.754 17.9529V23.0803C25.754 23.505 25.4165 23.8494 25 23.8494C24.5836 23.8494 24.246 23.505 24.246 23.0803V17.9529C24.246 17.5281 24.5836 17.1838 25 17.1838Z" fill="white"/>
<path d="M15.3467 37.0615C15.4297 38.3066 16.4648 39.1172 17.959 39.1172C19.5801 39.1172 20.5957 38.3115 20.5957 37.0225C20.5957 36.0117 20.0049 35.4502 18.5449 35.084L17.8076 34.8887C16.8506 34.6396 16.46 34.3223 16.46 33.79C16.46 33.1016 17.0947 32.6279 18.0078 32.6279C18.9258 32.6279 19.5361 33.0918 19.6143 33.8486H20.4932C20.4541 32.667 19.4385 31.8369 18.0371 31.8369C16.5723 31.8369 15.5469 32.6572 15.5469 33.8291C15.5469 34.7861 16.123 35.3574 17.4219 35.6895L18.3252 35.9238C19.2725 36.168 19.6875 36.5342 19.6875 37.1299C19.6875 37.8232 18.9941 38.3262 18.042 38.3262C17.0361 38.3262 16.3135 37.8232 16.2305 37.0615H15.3467ZM24.5947 31.8369C22.5977 31.8369 21.3477 33.2432 21.3477 35.4795C21.3477 37.7158 22.5977 39.1172 24.5947 39.1172C26.5918 39.1172 27.8418 37.7158 27.8418 35.4795C27.8418 33.2432 26.5918 31.8369 24.5947 31.8369ZM24.5947 32.6475C26.0352 32.6475 26.9385 33.7412 26.9385 35.4795C26.9385 37.2129 26.0352 38.3066 24.5947 38.3066C23.1543 38.3066 22.251 37.2129 22.251 35.4795C22.251 33.7412 23.1543 32.6475 24.5947 32.6475ZM28.5986 37.0615C28.6816 38.3066 29.7168 39.1172 31.2109 39.1172C32.832 39.1172 33.8477 38.3115 33.8477 37.0225C33.8477 36.0117 33.2568 35.4502 31.7969 35.084L31.0596 34.8887C30.1025 34.6396 29.7119 34.3223 29.7119 33.79C29.7119 33.1016 30.3467 32.6279 31.2598 32.6279C32.1777 32.6279 32.7881 33.0918 32.8662 33.8486H33.7451C33.7061 32.667 32.6904 31.8369 31.2891 31.8369C29.8242 31.8369 28.7988 32.6572 28.7988 33.8291C28.7988 34.7861 29.375 35.3574 30.6738 35.6895L31.5771 35.9238C32.5244 36.168 32.9395 36.5342 32.9395 37.1299C32.9395 37.8232 32.2461 38.3262 31.2939 38.3262C30.2881 38.3262 29.5654 37.8232 29.4824 37.0615H28.5986Z" fill="white"/>
<defs>
<linearGradient id="paint0_linear_1_22" x1="25" y1="0" x2="25" y2="50" gradientUnits="userSpaceOnUse">
<stop stop-color="#FF5963"/>
<stop offset="1" stop-color="#E72C37"/>
</linearGradient>
</defs>
</svg>
