<svg width="200" height="200" viewBox="0 0 200 200" fill="none" xmlns="http://www.w3.org/2000/svg">
<circle opacity="0.2" cx="100" cy="100" r="100" fill="url(#paint0_linear_376_16308)"/>
<circle opacity="0.4" cx="100" cy="100" r="80" fill="url(#paint1_linear_376_16308)"/>
<circle cx="100" cy="100" r="60" fill="url(#paint2_linear_376_16308)"/>
<path fill-rule="evenodd" clip-rule="evenodd" d="M95.4349 83.4576C97.6306 80.1808 102.369 80.1808 104.565 83.4576L105.434 84.7537C110.875 92.8738 115.55 101.501 119.396 110.521L119.577 110.946C120.932 114.125 118.885 117.734 115.508 118.119C105.201 119.294 94.7987 119.294 84.4924 118.119C81.1152 117.734 79.0676 114.125 80.4229 110.946L80.6043 110.521C84.4503 101.501 89.1252 92.8738 94.5664 84.7536L95.4349 83.4576ZM102.011 93.7274C102.011 94.8601 101.111 95.7784 100 95.7784C98.8895 95.7784 97.9893 94.8601 97.9893 93.7274C97.9893 92.5947 98.8895 91.6765 100 91.6765C101.111 91.6765 102.011 92.5947 102.011 93.7274ZM100 99.3676C100.833 99.3676 101.508 100.056 101.508 100.906V111.161C101.508 112.01 100.833 112.699 100 112.699C99.1672 112.699 98.492 112.01 98.492 111.161V100.906C98.492 100.056 99.1672 99.3676 100 99.3676Z" fill="white"/>
<defs>
<linearGradient id="paint0_linear_376_16308" x1="100" y1="0" x2="100" y2="200" gradientUnits="userSpaceOnUse">
<stop stop-color="#FF5963"/>
<stop offset="1" stop-color="#E72C37"/>
</linearGradient>
<linearGradient id="paint1_linear_376_16308" x1="100" y1="20" x2="100" y2="180" gradientUnits="userSpaceOnUse">
<stop stop-color="#FF5963"/>
<stop offset="1" stop-color="#E72C37"/>
</linearGradient>
<linearGradient id="paint2_linear_376_16308" x1="100" y1="40" x2="100" y2="160" gradientUnits="userSpaceOnUse">
<stop stop-color="#FF5963"/>
<stop offset="1" stop-color="#E72C37"/>
</linearGradient>
</defs>
</svg>
