<svg width="27" height="18" viewBox="0 0 27 18" fill="none" xmlns="http://www.w3.org/2000/svg">
<path fill-rule="evenodd" clip-rule="evenodd" d="M6.02749 0.206313C9.41264 -0.0927298 12.8192 -0.0666281 16.1992 0.284252L17.0736 0.375021C18.7425 0.548267 20.0857 1.79896 20.3651 3.42677L25.0819 0.950795C25.4016 0.783002 25.7851 0.784731 26.1032 0.955399C26.4213 1.12607 26.6316 1.44294 26.6632 1.7992L26.699 2.2027C27.1003 6.72555 27.1003 11.2744 26.699 15.7973L26.6632 16.2008C26.6316 16.557 26.4213 16.8739 26.1032 17.0446C25.7851 17.2153 25.4016 17.217 25.0819 17.0492L20.3651 14.5732C20.0857 16.201 18.7425 17.4517 17.0736 17.625L16.1992 17.7157C12.8192 18.0666 9.41264 18.0927 6.02749 17.7937L3.75164 17.5926C2.03675 17.4411 0.651161 16.1468 0.402094 14.4636C-0.134031 10.8404 -0.134031 7.15955 0.402094 3.53643C0.651161 1.85324 2.03675 0.558853 3.75164 0.407361L6.02749 0.206313ZM20.6312 12.3642C20.7467 12.3821 20.8611 12.419 20.9701 12.4762L24.6462 14.4059C24.907 10.8066 24.907 7.19341 24.6462 3.59409L20.9701 5.52375C20.8611 5.58096 20.7467 5.61785 20.6312 5.63576C20.8329 7.87415 20.8329 10.1258 20.6312 12.3642Z" fill="#7E9DFE"/>
</svg>
